G04 Filename: PCBWay_small_2to6ghz_vivaldi.gtl*
G04 FileFunction: Copper,L1,Top,Signal*
G04 Part: Single*
G04 ProjectId: PCBWay_small_2to6ghz_vivaldi,974C31CABA66D5DCD8AF70DA5F3A9620,1*
G04 GenerationSoftware: MathWorks,MATLAB,9.8.0.1417392 (R2020a) Update 4*
G04 CreationDate: 2021-07-15T12:59:41-0700*
G04 FilePolarity: Positive*
%FSLAX16Y16*%
%MOIN*%
%ADD10C,0.05905511811*%  G04 Connect signal to connector*
G04 Antenna metal layer 1*
%LPD*%
G01*
G36*
X-1771654Y-0692913D02*
Y-0633858D01*
X-1141732D01*
Y-0643701D01*
X-0818898D01*
Y0033465D01*
X-0923145Y0152476D01*
X-0912911Y0161897D01*
X-0901933Y0170441D01*
X-0890288Y0178049D01*
X-0878054Y0184670D01*
X-0865315Y0190258D01*
X-0852158Y0194775D01*
X-0838673Y0198190D01*
X-0824952Y0200479D01*
X-0811089Y0201628D01*
X-0797179D01*
X-0783316Y0200479D01*
X-0769595Y0198190D01*
X-0756110Y0194775D01*
X-0742953Y0190258D01*
X-0730214Y0184670D01*
X-0717980Y0178049D01*
X-0706335Y0170441D01*
X-0695357Y0161897D01*
X-0685123Y0152476D01*
X-0789370Y0033465D01*
Y-0683071D01*
X-1141732D01*
Y-0692913D01*
X-1701662D01*
G37*
G04 Add SMAEdge connector*
G04  - Remove copper from signal plane*
%LPC*%
G36*
X-1771654Y-0811024D02*
X-1596457D01*
Y-0515748D01*
X-1771654D01*
Y-0811024D01*
D02*
G37*
G04  - Add pads*
%LPD*%
G36*
Y-0578740D02*
X-1606299D01*
Y-0525591D01*
X-1771654D01*
Y-0578740D01*
D02*
G37*
G36*
Y-0801181D02*
X-1606299D01*
Y-0748031D01*
X-1771654D01*
Y-0801181D01*
D02*
G37*
G36*
X-1767717Y-0688386D02*
X-1625984D01*
Y-0638386D01*
X-1767717D01*
Y-0688386D01*
D02*
G37*
G04  - Add traces*
D10*
X-1596457Y-0663386D02*
X-1629921D01*
G04 MD5: a3a39259d32e1ba46393a8ef156b7ae*
M02*
