G04 Filename: PCBWay_small_2to6ghz_vivaldi.gbl*
G04 FileFunction: Copper,L2,Bot,Signal*
G04 Part: Single*
G04 ProjectId: PCBWay_small_2to6ghz_vivaldi,974C31CABA66D5DCD8AF70DA5F3A9620,1*
G04 GenerationSoftware: MathWorks,MATLAB,9.8.0.1417392 (R2020a) Update 4*
G04 CreationDate: 2021-07-15T12:59:41-0700*
G04 FilePolarity: Positive*
%FSLAX16Y16*%
%MOIN*%
%ADD11C,0.05905511811*%  G04 Connect ground to connector*
G04 Antenna metal layer 2*
%LPD*%
G01*
G36*
X-1771654Y-1574803D02*
Y1574803D01*
X1771654D01*
Y1573228D01*
X1725856Y1432136D01*
X1680058Y1303698D01*
X1634260Y1186778D01*
X1588462Y1080344D01*
X1542664Y0983455D01*
X1496866Y0895256D01*
X1451069Y0814966D01*
X1405271Y0741877D01*
X1359473Y0675343D01*
X1313675Y0614776D01*
X1267877Y0559641D01*
X1222079Y0509451D01*
X1176282Y0463762D01*
X1130484Y0422170D01*
X1084686Y0384308D01*
X1038888Y0349842D01*
X0993090Y0318467D01*
X0947292Y0289906D01*
X0901494Y0263906D01*
X0855697Y0240238D01*
X0809899Y0218693D01*
X0764101Y0199080D01*
X0718303Y0181226D01*
X0672505Y0164973D01*
X0626707Y0150178D01*
X0580910Y0136709D01*
X0535112Y0124449D01*
X0489314Y0113288D01*
X0443516Y0103128D01*
X0397718Y0093879D01*
X0351920Y0085460D01*
X0306122Y0077795D01*
X0260325Y0070818D01*
X0214527Y0064467D01*
X0168729Y0058685D01*
X0122931Y0053422D01*
X0077133Y0048631D01*
X0031335Y0044270D01*
X-0014462Y0040300D01*
X-0060260Y0036685D01*
X-0106058Y0033395D01*
X-0151856Y0030400D01*
X-0197654Y0027674D01*
X-0243452Y0025192D01*
X-0289250Y0022933D01*
X-0335047Y0020876D01*
X-0380845Y0019004D01*
X-0426643Y0017300D01*
X-0472441Y0015748D01*
X-0866142D01*
X-0867694Y0024672D01*
X-0872326Y0048955D01*
X-0879965Y0072465D01*
X-0890491Y0094833D01*
X-0903737Y0115706D01*
X-0919494Y0134753D01*
X-0937515Y0151676D01*
X-0957514Y0166206D01*
X-0979177Y0178116D01*
X-1002162Y0187216D01*
X-1026106Y0193364D01*
X-1050632Y0196462D01*
X-1075352D01*
X-1099878Y0193364D01*
X-1123822Y0187216D01*
X-1146807Y0178116D01*
X-1168470Y0166206D01*
X-1188469Y0151676D01*
X-1206490Y0134753D01*
X-1222247Y0115706D01*
X-1235493Y0094833D01*
X-1246019Y0072465D01*
X-1253658Y0048955D01*
X-1258290Y0024672D01*
X-1259843Y0000000D01*
X-1258290Y-0024672D01*
X-1253658Y-0048955D01*
X-1246019Y-0072465D01*
X-1235493Y-0094833D01*
X-1222247Y-0115706D01*
X-1206490Y-0134753D01*
X-1188469Y-0151676D01*
X-1168470Y-0166206D01*
X-1146807Y-0178116D01*
X-1123822Y-0187216D01*
X-1099878Y-0193364D01*
X-1075352Y-0196462D01*
X-1050632D01*
X-1026106Y-0193364D01*
X-1002162Y-0187216D01*
X-0979177Y-0178116D01*
X-0957514Y-0166206D01*
X-0937515Y-0151676D01*
X-0919494Y-0134753D01*
X-0903737Y-0115706D01*
X-0890491Y-0094833D01*
X-0879965Y-0072465D01*
X-0872326Y-0048955D01*
X-0867694Y-0024672D01*
X-0866142Y-0015748D01*
X-0472441D01*
X-0426643Y-0017300D01*
X-0380845Y-0019004D01*
X-0335047Y-0020876D01*
X-0289250Y-0022933D01*
X-0243452Y-0025192D01*
X-0197654Y-0027674D01*
X-0151856Y-0030400D01*
X-0106058Y-0033395D01*
X-0060260Y-0036685D01*
X-0014462Y-0040300D01*
X0031335Y-0044270D01*
X0077133Y-0048631D01*
X0122931Y-0053422D01*
X0168729Y-0058685D01*
X0214527Y-0064467D01*
X0260325Y-0070818D01*
X0306122Y-0077795D01*
X0351920Y-0085460D01*
X0397718Y-0093879D01*
X0443516Y-0103128D01*
X0489314Y-0113288D01*
X0535112Y-0124449D01*
X0580910Y-0136709D01*
X0626707Y-0150178D01*
X0672505Y-0164973D01*
X0718303Y-0181226D01*
X0764101Y-0199080D01*
X0809899Y-0218693D01*
X0855697Y-0240238D01*
X0901494Y-0263906D01*
X0947292Y-0289906D01*
X0993090Y-0318467D01*
X1038888Y-0349842D01*
X1084686Y-0384308D01*
X1130484Y-0422170D01*
X1176282Y-0463762D01*
X1222079Y-0509451D01*
X1267877Y-0559641D01*
X1313675Y-0614776D01*
X1359473Y-0675343D01*
X1405271Y-0741877D01*
X1451069Y-0814966D01*
X1496866Y-0895256D01*
X1542664Y-0983455D01*
X1588462Y-1080344D01*
X1634260Y-1186778D01*
X1680058Y-1303698D01*
X1725856Y-1432136D01*
X1771654Y-1573228D01*
Y-1574803D01*
G37*
G04 Add SMAEdge connector*
G04  - Add pads*
G36*
X-1771654Y-0801181D02*
X-1606299D01*
Y-0505906D01*
X-1771654D01*
Y-0801181D01*
D02*
G37*
D11*
X-1688976Y-0552165D02*
X-1586614D01*
X-1688976Y-0774606D02*
X-1586614D01*
G04 MD5: e554cccf7e4f8c7492f7d2675b10f6e2*
M02*
