G04 Filename: PCBWay_small_2to6ghz_vivaldi.gto*
G04 FileFunction: Legend,Top*
G04 Part: Single*
G04 ProjectId: PCBWay_small_2to6ghz_vivaldi,974C31CABA66D5DCD8AF70DA5F3A9620,1*
G04 GenerationSoftware: MathWorks,MATLAB,9.8.0.1417392 (R2020a) Update 4*
G04 CreationDate: 2021-07-15T12:59:42-0700*
%FSLAX16Y16*%
%MOIN*%
%ADD12C,0.008*%  G04 For silkscreen component boundaries - signal side*
D12*
%LPD*%
G01*
X-1767654Y-0815024D02*
X-1592457D01*
Y-0511748D01*
X-1767654D01*
G04 Label the edge connector*
G36*
X-1465521Y-0032363D02*
X-1464419Y-0033465D01*
X-1463318D01*
X-1462217D01*
X-1461115D01*
X-1460014D01*
X-1458913D01*
X-1457812D01*
X-1456710Y-0034566D01*
X-1455609D01*
X-1454508D01*
X-1453407D01*
X-1452305Y-0035667D01*
X-1451204D01*
X-1450103D01*
X-1449002Y-0036768D01*
X-1447900D01*
X-1446799Y-0037870D01*
X-1445698D01*
X-1444597Y-0038971D01*
X-1443495D01*
X-1442394Y-0040072D01*
X-1441293Y-0041173D01*
X-1440192Y-0042275D01*
X-1439090D01*
X-1437989Y-0043376D01*
X-1436888Y-0044477D01*
X-1435786Y-0045578D01*
Y-0046680D01*
X-1434685Y-0047781D01*
X-1433584Y-0048882D01*
X-1432483Y-0049983D01*
X-1431381Y-0051085D01*
Y-0052186D01*
X-1430280Y-0053287D01*
Y-0054389D01*
X-1429179Y-0055490D01*
Y-0056591D01*
X-1428078Y-0057692D01*
Y-0058794D01*
Y-0059895D01*
Y-0060996D01*
Y-0062097D01*
Y-0063199D01*
Y-0064300D01*
Y-0065401D01*
Y-0066502D01*
Y-0067604D01*
Y-0068705D01*
Y-0069806D01*
Y-0070907D01*
Y-0072009D01*
Y-0073110D01*
Y-0074211D01*
Y-0075312D01*
Y-0076414D01*
Y-0077515D01*
Y-0078616D01*
Y-0079718D01*
Y-0080819D01*
Y-0081920D01*
Y-0083021D01*
Y-0084123D01*
Y-0085224D01*
Y-0086325D01*
Y-0087426D01*
Y-0088528D01*
Y-0089629D01*
Y-0090730D01*
Y-0091831D01*
Y-0092933D01*
Y-0094034D01*
Y-0095135D01*
Y-0096236D01*
Y-0097338D01*
Y-0098439D01*
Y-0099540D01*
Y-0100641D01*
Y-0101743D01*
Y-0102844D01*
Y-0103945D01*
Y-0105047D01*
Y-0106148D01*
Y-0107249D01*
Y-0108350D01*
Y-0109452D01*
Y-0110553D01*
Y-0111654D01*
Y-0112755D01*
Y-0113857D01*
Y-0114958D01*
Y-0116059D01*
Y-0117160D01*
Y-0118262D01*
Y-0119363D01*
Y-0120464D01*
Y-0121565D01*
Y-0122667D01*
Y-0123768D01*
Y-0124869D01*
Y-0125970D01*
Y-0127072D01*
X-1429179Y-0128173D01*
Y-0129274D01*
Y-0130376D01*
X-1430280Y-0131477D01*
Y-0132578D01*
Y-0133679D01*
X-1431381D01*
X-1432483D01*
X-1433584D01*
X-1434685D01*
X-1435786D01*
X-1436888D01*
X-1437989D01*
X-1439090D01*
X-1440192D01*
X-1441293D01*
X-1442394D01*
X-1443495D01*
X-1444597D01*
X-1445698D01*
X-1446799D01*
X-1447900D01*
X-1449002D01*
Y-0132578D01*
X-1447900Y-0131477D01*
Y-0130376D01*
X-1446799Y-0129274D01*
Y-0128173D01*
X-1445698Y-0127072D01*
Y-0125970D01*
Y-0124869D01*
X-1444597Y-0123768D01*
Y-0122667D01*
Y-0121565D01*
X-1443495Y-0120464D01*
Y-0119363D01*
X-1442394Y-0118262D01*
Y-0117160D01*
Y-0116059D01*
X-1441293Y-0114958D01*
Y-0113857D01*
Y-0112755D01*
Y-0111654D01*
X-1440192Y-0110553D01*
Y-0109452D01*
Y-0108350D01*
Y-0107249D01*
X-1439090Y-0106148D01*
Y-0105047D01*
Y-0103945D01*
Y-0102844D01*
Y-0101743D01*
X-1437989Y-0100641D01*
Y-0099540D01*
Y-0098439D01*
Y-0097338D01*
Y-0096236D01*
Y-0095135D01*
Y-0094034D01*
Y-0092933D01*
Y-0091831D01*
Y-0090730D01*
Y-0089629D01*
Y-0088528D01*
Y-0087426D01*
Y-0086325D01*
Y-0085224D01*
Y-0084123D01*
Y-0083021D01*
Y-0081920D01*
Y-0080819D01*
X-1439090Y-0079718D01*
Y-0078616D01*
Y-0077515D01*
Y-0076414D01*
Y-0075312D01*
X-1440192Y-0074211D01*
Y-0073110D01*
Y-0072009D01*
Y-0070907D01*
X-1441293Y-0069806D01*
Y-0068705D01*
X-1442394Y-0067604D01*
Y-0066502D01*
X-1443495Y-0065401D01*
Y-0064300D01*
X-1444597Y-0063199D01*
X-1445698Y-0062097D01*
Y-0060996D01*
X-1446799Y-0059895D01*
X-1447900Y-0058794D01*
X-1449002Y-0057692D01*
X-1450103Y-0056591D01*
X-1451204D01*
X-1452305Y-0055490D01*
X-1453407D01*
X-1454508Y-0054389D01*
X-1455609D01*
X-1456710Y-0053287D01*
X-1457812D01*
X-1458913D01*
X-1460014D01*
X-1461115Y-0052186D01*
X-1462217D01*
X-1463318D01*
X-1464419D01*
X-1465521D01*
X-1466622D01*
X-1467723D01*
X-1468824D01*
X-1469926D01*
X-1471027Y-0053287D01*
X-1472128D01*
X-1473229D01*
X-1474331D01*
X-1475432Y-0054389D01*
X-1476533D01*
X-1477634Y-0055490D01*
X-1478736Y-0056591D01*
X-1479837D01*
X-1480938Y-0057692D01*
X-1482039Y-0058794D01*
Y-0059895D01*
X-1483141Y-0060996D01*
X-1484242Y-0062097D01*
Y-0063199D01*
X-1485343Y-0064300D01*
Y-0065401D01*
X-1486444Y-0066502D01*
Y-0067604D01*
Y-0068705D01*
X-1487546Y-0069806D01*
Y-0070907D01*
X-1488647Y-0072009D01*
Y-0073110D01*
Y-0074211D01*
Y-0075312D01*
X-1489748Y-0076414D01*
Y-0077515D01*
Y-0078616D01*
Y-0079718D01*
Y-0080819D01*
X-1490850Y-0081920D01*
Y-0083021D01*
Y-0084123D01*
Y-0085224D01*
X-1491951Y-0086325D01*
Y-0087426D01*
Y-0088528D01*
Y-0089629D01*
Y-0090730D01*
X-1493052Y-0091831D01*
Y-0092933D01*
Y-0094034D01*
Y-0095135D01*
Y-0096236D01*
X-1494153Y-0097338D01*
Y-0098439D01*
Y-0099540D01*
Y-0100641D01*
Y-0101743D01*
X-1495255Y-0102844D01*
Y-0103945D01*
Y-0105047D01*
Y-0106148D01*
X-1496356Y-0107249D01*
Y-0108350D01*
Y-0109452D01*
X-1497457Y-0110553D01*
Y-0111654D01*
Y-0112755D01*
X-1498558Y-0113857D01*
Y-0114958D01*
X-1499660Y-0116059D01*
Y-0117160D01*
X-1500761Y-0118262D01*
Y-0119363D01*
X-1501862Y-0120464D01*
Y-0121565D01*
X-1502963Y-0122667D01*
Y-0123768D01*
X-1504065Y-0124869D01*
X-1505166Y-0125970D01*
Y-0127072D01*
X-1506267Y-0128173D01*
X-1507368Y-0129274D01*
X-1508470Y-0130376D01*
X-1509571Y-0131477D01*
X-1510672Y-0132578D01*
X-1511773Y-0133679D01*
X-1512875Y-0134781D01*
X-1513976Y-0135882D01*
X-1515077D01*
X-1516179Y-0136983D01*
X-1517280D01*
X-1518381Y-0138084D01*
X-1519482D01*
X-1520584Y-0139186D01*
X-1521685D01*
X-1522786Y-0140287D01*
X-1523887D01*
X-1524989D01*
X-1526090Y-0141388D01*
X-1527191D01*
X-1528292D01*
X-1529394D01*
X-1530495D01*
X-1531596Y-0142489D01*
X-1532697D01*
X-1533799D01*
X-1534900D01*
X-1536001D01*
X-1537102D01*
X-1538204D01*
X-1539305D01*
X-1540406D01*
X-1541508D01*
X-1542609D01*
X-1543710D01*
X-1544811D01*
X-1545913D01*
X-1547014D01*
X-1548115D01*
X-1549216Y-0141388D01*
X-1550318D01*
X-1551419D01*
X-1552520D01*
X-1553621D01*
X-1554723Y-0140287D01*
X-1555824D01*
X-1556925D01*
X-1558026Y-0139186D01*
X-1559128D01*
X-1560229Y-0138084D01*
X-1561330D01*
X-1562431Y-0136983D01*
X-1563533D01*
X-1564634Y-0135882D01*
X-1565735Y-0134781D01*
X-1566837D01*
X-1567938Y-0133679D01*
X-1569039Y-0132578D01*
X-1570140Y-0131477D01*
X-1571242Y-0130376D01*
X-1572343Y-0129274D01*
X-1573444Y-0128173D01*
X-1574545Y-0127072D01*
Y-0125970D01*
X-1575647Y-0124869D01*
X-1576748Y-0123768D01*
Y-0122667D01*
X-1577849Y-0121565D01*
Y-0120464D01*
X-1578950Y-0119363D01*
Y-0118262D01*
X-1580052Y-0117160D01*
Y-0116059D01*
Y-0114958D01*
X-1581153Y-0113857D01*
Y-0112755D01*
Y-0111654D01*
X-1582254Y-0110553D01*
Y-0109452D01*
Y-0108350D01*
X-1583355Y-0107249D01*
Y-0106148D01*
Y-0105047D01*
Y-0103945D01*
Y-0102844D01*
Y-0101743D01*
X-1584457Y-0100641D01*
Y-0099540D01*
Y-0098439D01*
Y-0097338D01*
Y-0096236D01*
Y-0095135D01*
Y-0094034D01*
Y-0092933D01*
X-1585558Y-0091831D01*
Y-0090730D01*
Y-0089629D01*
Y-0088528D01*
Y-0087426D01*
Y-0086325D01*
Y-0085224D01*
Y-0084123D01*
Y-0083021D01*
Y-0081920D01*
Y-0080819D01*
Y-0079718D01*
Y-0078616D01*
Y-0077515D01*
Y-0076414D01*
Y-0075312D01*
X-1584457Y-0074211D01*
Y-0073110D01*
Y-0072009D01*
Y-0070907D01*
Y-0069806D01*
Y-0068705D01*
Y-0067604D01*
Y-0066502D01*
Y-0065401D01*
X-1583355Y-0064300D01*
Y-0063199D01*
Y-0062097D01*
Y-0060996D01*
Y-0059895D01*
X-1582254Y-0058794D01*
Y-0057692D01*
Y-0056591D01*
Y-0055490D01*
Y-0054389D01*
X-1581153Y-0053287D01*
Y-0052186D01*
Y-0051085D01*
Y-0049983D01*
X-1580052Y-0048882D01*
Y-0047781D01*
Y-0046680D01*
X-1578950Y-0045578D01*
Y-0044477D01*
Y-0043376D01*
Y-0042275D01*
X-1577849Y-0041173D01*
Y-0040072D01*
Y-0038971D01*
X-1576748Y-0037870D01*
Y-0036768D01*
Y-0035667D01*
X-1575647Y-0034566D01*
Y-0033465D01*
X-1574545D01*
X-1573444D01*
X-1572343D01*
X-1571242D01*
X-1570140D01*
X-1569039D01*
X-1567938D01*
X-1566837D01*
X-1565735D01*
X-1564634D01*
X-1563533D01*
X-1562431D01*
X-1561330D01*
X-1560229D01*
X-1559128D01*
X-1558026D01*
X-1556925D01*
X-1555824D01*
X-1556925Y-0034566D01*
Y-0035667D01*
X-1558026Y-0036768D01*
Y-0037870D01*
X-1559128Y-0038971D01*
Y-0040072D01*
X-1560229Y-0041173D01*
Y-0042275D01*
X-1561330Y-0043376D01*
Y-0044477D01*
X-1562431Y-0045578D01*
Y-0046680D01*
Y-0047781D01*
X-1563533Y-0048882D01*
Y-0049983D01*
X-1564634Y-0051085D01*
Y-0052186D01*
Y-0053287D01*
X-1565735Y-0054389D01*
Y-0055490D01*
Y-0056591D01*
X-1566837Y-0057692D01*
Y-0058794D01*
Y-0059895D01*
Y-0060996D01*
X-1567938Y-0062097D01*
Y-0063199D01*
Y-0064300D01*
Y-0065401D01*
Y-0066502D01*
X-1569039Y-0067604D01*
Y-0068705D01*
Y-0069806D01*
Y-0070907D01*
Y-0072009D01*
Y-0073110D01*
X-1570140Y-0074211D01*
Y-0075312D01*
Y-0076414D01*
Y-0077515D01*
Y-0078616D01*
Y-0079718D01*
Y-0080819D01*
Y-0081920D01*
Y-0083021D01*
Y-0084123D01*
Y-0085224D01*
Y-0086325D01*
Y-0087426D01*
Y-0088528D01*
Y-0089629D01*
Y-0090730D01*
Y-0091831D01*
X-1569039Y-0092933D01*
Y-0094034D01*
Y-0095135D01*
Y-0096236D01*
Y-0097338D01*
Y-0098439D01*
X-1567938Y-0099540D01*
Y-0100641D01*
Y-0101743D01*
X-1566837Y-0102844D01*
Y-0103945D01*
Y-0105047D01*
X-1565735Y-0106148D01*
Y-0107249D01*
X-1564634Y-0108350D01*
Y-0109452D01*
X-1563533Y-0110553D01*
X-1562431Y-0111654D01*
Y-0112755D01*
X-1561330Y-0113857D01*
X-1560229Y-0114958D01*
X-1559128Y-0116059D01*
X-1558026Y-0117160D01*
X-1556925Y-0118262D01*
X-1555824D01*
X-1554723Y-0119363D01*
X-1553621D01*
X-1552520Y-0120464D01*
X-1551419D01*
X-1550318Y-0121565D01*
X-1549216D01*
X-1548115D01*
X-1547014D01*
X-1545913D01*
X-1544811Y-0122667D01*
X-1543710D01*
X-1542609D01*
X-1541508D01*
X-1540406D01*
X-1539305D01*
X-1538204D01*
X-1537102D01*
X-1536001Y-0121565D01*
X-1534900D01*
X-1533799D01*
X-1532697D01*
X-1531596D01*
X-1530495Y-0120464D01*
X-1529394D01*
X-1528292Y-0119363D01*
X-1527191D01*
X-1526090Y-0118262D01*
X-1524989D01*
X-1523887Y-0117160D01*
X-1522786Y-0116059D01*
X-1521685Y-0114958D01*
X-1520584Y-0113857D01*
Y-0112755D01*
X-1519482Y-0111654D01*
X-1518381Y-0110553D01*
Y-0109452D01*
X-1517280Y-0108350D01*
Y-0107249D01*
X-1516179Y-0106148D01*
Y-0105047D01*
X-1515077Y-0103945D01*
Y-0102844D01*
Y-0101743D01*
X-1513976Y-0100641D01*
Y-0099540D01*
Y-0098439D01*
X-1512875Y-0097338D01*
Y-0096236D01*
Y-0095135D01*
Y-0094034D01*
X-1511773Y-0092933D01*
Y-0091831D01*
Y-0090730D01*
Y-0089629D01*
Y-0088528D01*
X-1510672Y-0087426D01*
Y-0086325D01*
Y-0085224D01*
Y-0084123D01*
Y-0083021D01*
X-1509571Y-0081920D01*
Y-0080819D01*
Y-0079718D01*
Y-0078616D01*
Y-0077515D01*
X-1508470Y-0076414D01*
Y-0075312D01*
Y-0074211D01*
Y-0073110D01*
Y-0072009D01*
X-1507368Y-0070907D01*
Y-0069806D01*
Y-0068705D01*
Y-0067604D01*
X-1506267Y-0066502D01*
Y-0065401D01*
Y-0064300D01*
X-1505166Y-0063199D01*
Y-0062097D01*
X-1504065Y-0060996D01*
Y-0059895D01*
Y-0058794D01*
X-1502963Y-0057692D01*
Y-0056591D01*
Y-0055490D01*
X-1501862Y-0054389D01*
X-1500761Y-0053287D01*
Y-0052186D01*
X-1499660Y-0051085D01*
Y-0049983D01*
X-1498558Y-0048882D01*
X-1497457Y-0047781D01*
Y-0046680D01*
X-1496356Y-0045578D01*
X-1495255Y-0044477D01*
X-1494153Y-0043376D01*
X-1493052Y-0042275D01*
X-1491951Y-0041173D01*
X-1490850Y-0040072D01*
X-1489748Y-0038971D01*
X-1488647D01*
X-1487546Y-0037870D01*
X-1486444D01*
X-1485343Y-0036768D01*
X-1484242Y-0035667D01*
X-1483141D01*
X-1482039D01*
X-1480938Y-0034566D01*
X-1479837D01*
X-1478736D01*
X-1477634D01*
X-1476533Y-0033465D01*
X-1475432D01*
X-1474331D01*
X-1473229D01*
X-1472128D01*
X-1471027D01*
X-1469926D01*
X-1468824Y-0032363D01*
X-1467723D01*
X-1466622D01*
X-1465521D01*
G37*
G36*
X-1428078Y-0177730D02*
Y-0178831D01*
Y-0179932D01*
Y-0181034D01*
Y-0182135D01*
Y-0183236D01*
Y-0184337D01*
Y-0185439D01*
Y-0186540D01*
Y-0187641D01*
Y-0188742D01*
Y-0189844D01*
Y-0190945D01*
Y-0192046D01*
Y-0193147D01*
Y-0194249D01*
Y-0195350D01*
Y-0196451D01*
Y-0197552D01*
Y-0198654D01*
Y-0199755D01*
Y-0200856D01*
Y-0201957D01*
Y-0203059D01*
Y-0204160D01*
Y-0205261D01*
Y-0206363D01*
Y-0207464D01*
Y-0208565D01*
Y-0209666D01*
X-1429179D01*
X-1430280Y-0210768D01*
X-1431381D01*
X-1432483D01*
X-1433584Y-0211869D01*
X-1434685D01*
X-1435786D01*
X-1436888Y-0212970D01*
X-1437989D01*
X-1439090Y-0214071D01*
X-1440192D01*
X-1441293D01*
X-1442394Y-0215173D01*
X-1443495D01*
X-1444597Y-0216274D01*
X-1445698D01*
X-1446799D01*
X-1447900Y-0217375D01*
X-1449002D01*
X-1450103D01*
X-1451204Y-0218476D01*
X-1452305D01*
X-1453407D01*
X-1454508Y-0219578D01*
X-1455609D01*
X-1456710Y-0220679D01*
X-1457812D01*
X-1458913D01*
X-1460014Y-0221780D01*
X-1461115D01*
X-1462217D01*
X-1463318Y-0222881D01*
X-1464419D01*
X-1465521Y-0223983D01*
X-1466622D01*
X-1467723D01*
X-1468824Y-0225084D01*
X-1469926D01*
X-1471027D01*
X-1472128Y-0226185D01*
X-1473229D01*
X-1474331Y-0227286D01*
X-1475432D01*
X-1476533D01*
X-1477634Y-0228388D01*
X-1478736D01*
X-1479837D01*
X-1480938Y-0229489D01*
X-1482039D01*
X-1483141Y-0230590D01*
X-1484242D01*
X-1485343D01*
X-1486444Y-0231692D01*
X-1487546D01*
X-1488647D01*
X-1489748Y-0232793D01*
X-1490850D01*
X-1491951Y-0233894D01*
X-1493052D01*
X-1494153D01*
X-1495255Y-0234995D01*
X-1496356D01*
X-1497457D01*
X-1498558Y-0236097D01*
X-1499660D01*
X-1500761Y-0237198D01*
X-1501862D01*
X-1502963D01*
X-1504065Y-0238299D01*
X-1505166D01*
X-1506267D01*
X-1507368Y-0239400D01*
X-1508470D01*
X-1509571Y-0240502D01*
X-1510672D01*
X-1511773D01*
X-1512875Y-0241603D01*
X-1513976D01*
X-1515077D01*
X-1516179Y-0242704D01*
X-1517280D01*
X-1518381Y-0243805D01*
X-1519482D01*
X-1520584D01*
X-1521685Y-0244907D01*
X-1522786D01*
X-1523887D01*
X-1524989Y-0246008D01*
X-1526090D01*
X-1527191Y-0247109D01*
X-1528292D01*
X-1529394D01*
X-1530495Y-0248210D01*
X-1531596D01*
X-1532697D01*
X-1533799Y-0249312D01*
Y-0250413D01*
X-1532697Y-0251514D01*
X-1531596D01*
X-1530495D01*
X-1529394Y-0252615D01*
X-1528292D01*
X-1527191Y-0253717D01*
X-1526090D01*
X-1524989D01*
X-1523887Y-0254818D01*
X-1522786D01*
X-1521685D01*
X-1520584Y-0255919D01*
X-1519482D01*
X-1518381D01*
X-1517280Y-0257021D01*
X-1516179D01*
X-1515077Y-0258122D01*
X-1513976D01*
X-1512875D01*
X-1511773Y-0259223D01*
X-1510672D01*
X-1509571D01*
X-1508470Y-0260324D01*
X-1507368D01*
X-1506267Y-0261426D01*
X-1505166D01*
X-1504065D01*
X-1502963Y-0262527D01*
X-1501862D01*
X-1500761Y-0263628D01*
X-1499660D01*
X-1498558D01*
X-1497457Y-0264729D01*
X-1496356D01*
X-1495255D01*
X-1494153Y-0265831D01*
X-1493052D01*
X-1491951Y-0266932D01*
X-1490850D01*
X-1489748D01*
X-1488647Y-0268033D01*
X-1487546D01*
X-1486444D01*
X-1485343Y-0269134D01*
X-1484242D01*
X-1483141Y-0270236D01*
X-1482039D01*
X-1480938D01*
X-1479837Y-0271337D01*
X-1478736D01*
X-1477634Y-0272438D01*
X-1476533D01*
X-1475432D01*
X-1474331Y-0273539D01*
X-1473229D01*
X-1472128D01*
X-1471027Y-0274641D01*
X-1469926D01*
X-1468824Y-0275742D01*
X-1467723D01*
X-1466622D01*
X-1465521Y-0276843D01*
X-1464419D01*
X-1463318D01*
X-1462217Y-0277944D01*
X-1461115D01*
X-1460014D01*
X-1458913Y-0279046D01*
X-1457812D01*
X-1456710Y-0280147D01*
X-1455609D01*
X-1454508D01*
X-1453407Y-0281248D01*
X-1452305D01*
X-1451204D01*
X-1450103Y-0282350D01*
X-1449002D01*
X-1447900Y-0283451D01*
X-1446799D01*
X-1445698D01*
X-1444597Y-0284552D01*
X-1443495D01*
X-1442394D01*
X-1441293Y-0285653D01*
X-1440192D01*
X-1439090Y-0286755D01*
X-1437989D01*
X-1436888D01*
X-1435786Y-0287856D01*
X-1434685D01*
X-1433584Y-0288957D01*
X-1432483D01*
X-1431381D01*
X-1430280Y-0290058D01*
X-1429179D01*
X-1428078D01*
Y-0291160D01*
Y-0292261D01*
Y-0293362D01*
Y-0294463D01*
Y-0295565D01*
Y-0296666D01*
Y-0297767D01*
Y-0298868D01*
Y-0299970D01*
Y-0301071D01*
Y-0302172D01*
Y-0303273D01*
Y-0304375D01*
Y-0305476D01*
Y-0306577D01*
Y-0307679D01*
Y-0308780D01*
Y-0309881D01*
Y-0310982D01*
Y-0312084D01*
Y-0313185D01*
Y-0314286D01*
Y-0315387D01*
Y-0316489D01*
Y-0317590D01*
Y-0318691D01*
Y-0319792D01*
Y-0320894D01*
Y-0321995D01*
X-1429179D01*
X-1430280D01*
X-1431381D01*
X-1432483D01*
X-1433584D01*
X-1434685D01*
X-1435786D01*
X-1436888D01*
X-1437989D01*
X-1439090D01*
X-1440192D01*
X-1441293D01*
X-1442394D01*
X-1443495D01*
X-1444597D01*
X-1445698D01*
X-1446799D01*
X-1447900D01*
X-1449002D01*
X-1450103D01*
X-1451204D01*
X-1452305D01*
X-1453407D01*
X-1454508D01*
X-1455609D01*
X-1456710D01*
X-1457812D01*
X-1458913D01*
X-1460014D01*
X-1461115D01*
X-1462217D01*
X-1463318D01*
X-1464419D01*
X-1465521D01*
X-1466622D01*
X-1467723D01*
X-1468824D01*
X-1469926D01*
X-1471027D01*
X-1472128D01*
X-1473229D01*
X-1474331D01*
X-1475432D01*
X-1476533D01*
X-1477634D01*
X-1478736D01*
X-1479837D01*
X-1480938D01*
X-1482039D01*
X-1483141D01*
X-1484242D01*
X-1485343D01*
X-1486444D01*
X-1487546D01*
X-1488647D01*
X-1489748D01*
X-1490850D01*
X-1491951D01*
X-1493052D01*
X-1494153D01*
X-1495255D01*
X-1496356D01*
X-1497457D01*
X-1498558D01*
X-1499660D01*
X-1500761D01*
X-1501862D01*
X-1502963D01*
X-1504065D01*
X-1505166D01*
X-1506267D01*
X-1507368D01*
X-1508470D01*
X-1509571D01*
X-1510672D01*
X-1511773D01*
X-1512875D01*
X-1513976D01*
X-1515077D01*
X-1516179D01*
X-1517280D01*
X-1518381D01*
X-1519482D01*
X-1520584D01*
X-1521685D01*
X-1522786D01*
X-1523887D01*
X-1524989D01*
X-1526090D01*
X-1527191D01*
X-1528292D01*
X-1529394D01*
X-1530495D01*
X-1531596D01*
X-1532697D01*
X-1533799D01*
X-1534900D01*
X-1536001D01*
X-1537102D01*
X-1538204D01*
X-1539305D01*
X-1540406D01*
X-1541508D01*
X-1542609D01*
X-1543710D01*
X-1544811D01*
X-1545913D01*
X-1547014D01*
X-1548115D01*
X-1549216D01*
X-1550318D01*
X-1551419D01*
X-1552520D01*
X-1553621D01*
X-1554723D01*
X-1555824D01*
X-1556925D01*
X-1558026D01*
X-1559128D01*
X-1560229D01*
X-1561330D01*
X-1562431D01*
X-1563533D01*
X-1564634D01*
X-1565735D01*
X-1566837D01*
X-1567938D01*
X-1569039D01*
X-1570140D01*
X-1571242D01*
X-1572343D01*
X-1573444D01*
X-1574545D01*
X-1575647D01*
X-1576748D01*
X-1577849D01*
X-1578950D01*
X-1580052D01*
X-1581153D01*
X-1582254D01*
Y-0320894D01*
Y-0319792D01*
Y-0318691D01*
Y-0317590D01*
Y-0316489D01*
Y-0315387D01*
Y-0314286D01*
Y-0313185D01*
Y-0312084D01*
Y-0310982D01*
Y-0309881D01*
Y-0308780D01*
Y-0307679D01*
Y-0306577D01*
Y-0305476D01*
Y-0304375D01*
Y-0303273D01*
X-1581153D01*
X-1580052D01*
X-1578950D01*
X-1577849D01*
X-1576748D01*
X-1575647D01*
X-1574545D01*
X-1573444D01*
X-1572343D01*
X-1571242D01*
X-1570140D01*
X-1569039D01*
X-1567938D01*
X-1566837D01*
X-1565735D01*
X-1564634D01*
X-1563533D01*
X-1562431D01*
X-1561330D01*
X-1560229D01*
X-1559128D01*
X-1558026D01*
X-1556925D01*
X-1555824D01*
X-1554723D01*
X-1553621D01*
X-1552520D01*
X-1551419D01*
X-1550318D01*
X-1549216D01*
X-1548115D01*
X-1547014D01*
X-1545913D01*
X-1544811D01*
X-1543710D01*
X-1542609D01*
X-1541508D01*
X-1540406D01*
X-1539305D01*
X-1538204D01*
X-1537102D01*
X-1536001D01*
X-1534900D01*
X-1533799D01*
X-1532697D01*
X-1531596D01*
X-1530495D01*
X-1529394D01*
X-1528292D01*
X-1527191D01*
X-1526090D01*
X-1524989D01*
X-1523887D01*
X-1522786D01*
X-1521685D01*
X-1520584D01*
X-1519482D01*
X-1518381D01*
X-1517280D01*
X-1516179D01*
X-1515077D01*
X-1513976D01*
X-1512875D01*
X-1511773D01*
X-1510672D01*
X-1509571D01*
X-1508470D01*
X-1507368D01*
X-1506267D01*
X-1505166D01*
X-1504065D01*
X-1502963D01*
X-1501862D01*
X-1500761D01*
X-1499660D01*
X-1498558D01*
X-1497457D01*
X-1496356D01*
X-1495255D01*
X-1494153D01*
X-1493052D01*
X-1491951D01*
X-1490850D01*
X-1489748D01*
X-1488647D01*
X-1487546D01*
X-1486444D01*
X-1485343D01*
X-1484242D01*
X-1483141D01*
X-1482039D01*
X-1480938D01*
X-1479837D01*
X-1478736D01*
X-1477634D01*
X-1476533D01*
X-1475432D01*
X-1474331D01*
X-1473229D01*
X-1472128D01*
X-1471027D01*
X-1469926D01*
X-1468824D01*
X-1467723D01*
X-1466622D01*
X-1465521D01*
X-1464419D01*
X-1463318D01*
X-1462217D01*
X-1461115D01*
X-1460014D01*
X-1458913D01*
X-1457812D01*
X-1456710D01*
X-1455609D01*
X-1454508D01*
X-1453407D01*
X-1452305D01*
X-1451204D01*
X-1450103D01*
X-1449002D01*
X-1447900D01*
X-1446799D01*
X-1445698D01*
X-1444597D01*
X-1443495D01*
X-1442394Y-0302172D01*
X-1443495Y-0301071D01*
X-1444597Y-0299970D01*
X-1445698D01*
X-1446799D01*
X-1447900Y-0298868D01*
X-1449002D01*
X-1450103Y-0297767D01*
X-1451204D01*
X-1452305D01*
X-1453407Y-0296666D01*
X-1454508D01*
X-1455609Y-0295565D01*
X-1456710D01*
X-1457812D01*
X-1458913Y-0294463D01*
X-1460014D01*
X-1461115D01*
X-1462217Y-0293362D01*
X-1463318D01*
X-1464419Y-0292261D01*
X-1465521D01*
X-1466622D01*
X-1467723Y-0291160D01*
X-1468824D01*
X-1469926D01*
X-1471027Y-0290058D01*
X-1472128D01*
X-1473229Y-0288957D01*
X-1474331D01*
X-1475432D01*
X-1476533Y-0287856D01*
X-1477634D01*
X-1478736D01*
X-1479837Y-0286755D01*
X-1480938D01*
X-1482039Y-0285653D01*
X-1483141D01*
X-1484242D01*
X-1485343Y-0284552D01*
X-1486444D01*
X-1487546D01*
X-1488647Y-0283451D01*
X-1489748D01*
X-1490850Y-0282350D01*
X-1491951D01*
X-1493052D01*
X-1494153Y-0281248D01*
X-1495255D01*
X-1496356D01*
X-1497457Y-0280147D01*
X-1498558D01*
X-1499660Y-0279046D01*
X-1500761D01*
X-1501862D01*
X-1502963Y-0277944D01*
X-1504065D01*
X-1505166D01*
X-1506267Y-0276843D01*
X-1507368D01*
X-1508470Y-0275742D01*
X-1509571D01*
X-1510672D01*
X-1511773Y-0274641D01*
X-1512875D01*
X-1513976D01*
X-1515077Y-0273539D01*
X-1516179D01*
X-1517280Y-0272438D01*
X-1518381D01*
X-1519482D01*
X-1520584Y-0271337D01*
X-1521685D01*
X-1522786Y-0270236D01*
X-1523887D01*
X-1524989D01*
X-1526090Y-0269134D01*
X-1527191D01*
X-1528292D01*
X-1529394Y-0268033D01*
X-1530495D01*
X-1531596D01*
X-1532697Y-0266932D01*
X-1533799D01*
X-1534900Y-0265831D01*
X-1536001D01*
X-1537102D01*
X-1538204Y-0264729D01*
X-1539305D01*
X-1540406D01*
X-1541508Y-0263628D01*
X-1542609D01*
X-1543710Y-0262527D01*
X-1544811D01*
X-1545913D01*
X-1547014Y-0261426D01*
X-1548115D01*
X-1549216D01*
X-1550318Y-0260324D01*
X-1551419D01*
Y-0259223D01*
Y-0258122D01*
Y-0257021D01*
Y-0255919D01*
Y-0254818D01*
Y-0253717D01*
Y-0252615D01*
Y-0251514D01*
Y-0250413D01*
Y-0249312D01*
Y-0248210D01*
Y-0247109D01*
Y-0246008D01*
Y-0244907D01*
Y-0243805D01*
Y-0242704D01*
Y-0241603D01*
Y-0240502D01*
Y-0239400D01*
X-1550318D01*
X-1549216D01*
X-1548115Y-0238299D01*
X-1547014D01*
X-1545913D01*
X-1544811Y-0237198D01*
X-1543710D01*
X-1542609Y-0236097D01*
X-1541508D01*
X-1540406D01*
X-1539305Y-0234995D01*
X-1538204D01*
X-1537102D01*
X-1536001Y-0233894D01*
X-1534900D01*
X-1533799Y-0232793D01*
X-1532697D01*
X-1531596D01*
X-1530495Y-0231692D01*
X-1529394D01*
X-1528292Y-0230590D01*
X-1527191D01*
X-1526090D01*
X-1524989Y-0229489D01*
X-1523887D01*
X-1522786D01*
X-1521685Y-0228388D01*
X-1520584D01*
X-1519482Y-0227286D01*
X-1518381D01*
X-1517280D01*
X-1516179Y-0226185D01*
X-1515077D01*
X-1513976D01*
X-1512875Y-0225084D01*
X-1511773D01*
X-1510672Y-0223983D01*
X-1509571D01*
X-1508470D01*
X-1507368Y-0222881D01*
X-1506267D01*
X-1505166D01*
X-1504065Y-0221780D01*
X-1502963D01*
X-1501862Y-0220679D01*
X-1500761D01*
X-1499660D01*
X-1498558Y-0219578D01*
X-1497457D01*
X-1496356D01*
X-1495255Y-0218476D01*
X-1494153D01*
X-1493052Y-0217375D01*
X-1491951D01*
X-1490850D01*
X-1489748Y-0216274D01*
X-1488647D01*
X-1487546D01*
X-1486444Y-0215173D01*
X-1485343D01*
X-1484242D01*
X-1483141Y-0214071D01*
X-1482039D01*
X-1480938Y-0212970D01*
X-1479837D01*
X-1478736D01*
X-1477634Y-0211869D01*
X-1476533D01*
X-1475432Y-0210768D01*
X-1474331D01*
X-1473229D01*
X-1472128Y-0209666D01*
X-1471027D01*
X-1469926D01*
X-1468824Y-0208565D01*
X-1467723D01*
X-1466622D01*
X-1465521Y-0207464D01*
X-1464419D01*
X-1463318Y-0206363D01*
X-1462217D01*
X-1461115D01*
X-1460014Y-0205261D01*
X-1458913D01*
X-1457812D01*
X-1456710Y-0204160D01*
X-1455609D01*
X-1454508Y-0203059D01*
X-1453407D01*
X-1452305D01*
X-1451204Y-0201957D01*
X-1450103D01*
X-1449002D01*
X-1447900Y-0200856D01*
X-1446799D01*
X-1445698Y-0199755D01*
X-1444597D01*
X-1443495D01*
X-1442394Y-0198654D01*
X-1443495Y-0197552D01*
X-1444597D01*
X-1445698D01*
X-1446799D01*
X-1447900D01*
X-1449002D01*
X-1450103D01*
X-1451204D01*
X-1452305D01*
X-1453407D01*
X-1454508D01*
X-1455609D01*
X-1456710D01*
X-1457812D01*
X-1458913D01*
X-1460014D01*
X-1461115D01*
X-1462217D01*
X-1463318D01*
X-1464419D01*
X-1465521D01*
X-1466622D01*
X-1467723D01*
X-1468824D01*
X-1469926D01*
X-1471027D01*
X-1472128D01*
X-1473229D01*
X-1474331D01*
X-1475432D01*
X-1476533D01*
X-1477634D01*
X-1478736D01*
X-1479837D01*
X-1480938D01*
X-1482039D01*
X-1483141D01*
X-1484242D01*
X-1485343D01*
X-1486444D01*
X-1487546D01*
X-1488647D01*
X-1489748D01*
X-1490850D01*
X-1491951D01*
X-1493052D01*
X-1494153D01*
X-1495255D01*
X-1496356D01*
X-1497457D01*
X-1498558D01*
X-1499660D01*
X-1500761D01*
X-1501862D01*
X-1502963D01*
X-1504065D01*
X-1505166D01*
X-1506267D01*
X-1507368D01*
X-1508470D01*
X-1509571D01*
X-1510672D01*
X-1511773D01*
X-1512875D01*
X-1513976D01*
X-1515077D01*
X-1516179D01*
X-1517280D01*
X-1518381D01*
X-1519482D01*
X-1520584D01*
X-1521685D01*
X-1522786D01*
X-1523887D01*
X-1524989D01*
X-1526090D01*
X-1527191D01*
X-1528292D01*
X-1529394D01*
X-1530495D01*
X-1531596D01*
X-1532697D01*
X-1533799D01*
X-1534900D01*
X-1536001D01*
X-1537102D01*
X-1538204D01*
X-1539305D01*
X-1540406D01*
X-1541508D01*
X-1542609D01*
X-1543710D01*
X-1544811D01*
X-1545913D01*
X-1547014D01*
X-1548115D01*
X-1549216D01*
X-1550318D01*
X-1551419D01*
X-1552520D01*
X-1553621D01*
X-1554723D01*
X-1555824D01*
X-1556925D01*
X-1558026D01*
X-1559128D01*
X-1560229D01*
X-1561330D01*
X-1562431D01*
X-1563533D01*
X-1564634D01*
X-1565735D01*
X-1566837D01*
X-1567938D01*
X-1569039D01*
X-1570140D01*
X-1571242D01*
X-1572343D01*
X-1573444D01*
X-1574545D01*
X-1575647D01*
X-1576748D01*
X-1577849D01*
X-1578950D01*
X-1580052D01*
X-1581153D01*
X-1582254D01*
Y-0196451D01*
Y-0195350D01*
Y-0194249D01*
Y-0193147D01*
Y-0192046D01*
Y-0190945D01*
Y-0189844D01*
Y-0188742D01*
Y-0187641D01*
Y-0186540D01*
Y-0185439D01*
Y-0184337D01*
Y-0183236D01*
Y-0182135D01*
Y-0181034D01*
Y-0179932D01*
Y-0178831D01*
Y-0177730D01*
X-1581153D01*
X-1580052D01*
X-1578950D01*
X-1577849D01*
X-1576748D01*
X-1575647D01*
X-1574545D01*
X-1573444D01*
X-1572343D01*
X-1571242D01*
X-1570140D01*
X-1569039D01*
X-1567938D01*
X-1566837D01*
X-1565735D01*
X-1564634D01*
X-1563533D01*
X-1562431D01*
X-1561330D01*
X-1560229D01*
X-1559128D01*
X-1558026D01*
X-1556925D01*
X-1555824D01*
X-1554723D01*
X-1553621D01*
X-1552520D01*
X-1551419D01*
X-1550318D01*
X-1549216D01*
X-1548115D01*
X-1547014D01*
X-1545913D01*
X-1544811D01*
X-1543710D01*
X-1542609D01*
X-1541508D01*
X-1540406D01*
X-1539305D01*
X-1538204D01*
X-1537102D01*
X-1536001D01*
X-1534900D01*
X-1533799D01*
X-1532697D01*
X-1531596D01*
X-1530495D01*
X-1529394D01*
X-1528292D01*
X-1527191D01*
X-1526090D01*
X-1524989D01*
X-1523887D01*
X-1522786D01*
X-1521685D01*
X-1520584D01*
X-1519482D01*
X-1518381D01*
X-1517280D01*
X-1516179D01*
X-1515077D01*
X-1513976D01*
X-1512875D01*
X-1511773D01*
X-1510672D01*
X-1509571D01*
X-1508470D01*
X-1507368D01*
X-1506267D01*
X-1505166D01*
X-1504065D01*
X-1502963D01*
X-1501862D01*
X-1500761D01*
X-1499660D01*
X-1498558D01*
X-1497457D01*
X-1496356D01*
X-1495255D01*
X-1494153D01*
X-1493052D01*
X-1491951D01*
X-1490850D01*
X-1489748D01*
X-1488647D01*
X-1487546D01*
X-1486444D01*
X-1485343D01*
X-1484242D01*
X-1483141D01*
X-1482039D01*
X-1480938D01*
X-1479837D01*
X-1478736D01*
X-1477634D01*
X-1476533D01*
X-1475432D01*
X-1474331D01*
X-1473229D01*
X-1472128D01*
X-1471027D01*
X-1469926D01*
X-1468824D01*
X-1467723D01*
X-1466622D01*
X-1465521D01*
X-1464419D01*
X-1463318D01*
X-1462217D01*
X-1461115D01*
X-1460014D01*
X-1458913D01*
X-1457812D01*
X-1456710D01*
X-1455609D01*
X-1454508D01*
X-1453407D01*
X-1452305D01*
X-1451204D01*
X-1450103D01*
X-1449002D01*
X-1447900D01*
X-1446799D01*
X-1445698D01*
X-1444597D01*
X-1443495D01*
X-1442394D01*
X-1441293D01*
X-1440192D01*
X-1439090D01*
X-1437989D01*
X-1436888D01*
X-1435786D01*
X-1434685D01*
X-1433584D01*
X-1432483D01*
X-1431381D01*
X-1430280D01*
X-1429179D01*
X-1428078D01*
G37*
G36*
X-1581153Y-0347324D02*
X-1580052Y-0348425D01*
X-1578950D01*
X-1577849D01*
X-1576748Y-0349526D01*
X-1575647D01*
X-1574545Y-0350628D01*
X-1573444D01*
X-1572343D01*
X-1571242Y-0351729D01*
X-1570140D01*
X-1569039Y-0352830D01*
X-1567938D01*
X-1566837D01*
X-1565735Y-0353932D01*
X-1564634D01*
X-1563533Y-0355033D01*
X-1562431D01*
X-1561330D01*
X-1560229Y-0356134D01*
X-1559128D01*
X-1558026D01*
X-1556925Y-0357235D01*
X-1555824D01*
X-1554723D01*
X-1553621Y-0358337D01*
X-1552520D01*
X-1551419Y-0359438D01*
X-1550318D01*
X-1549216D01*
X-1548115Y-0360539D01*
X-1547014D01*
X-1545913Y-0361640D01*
X-1544811D01*
X-1543710D01*
X-1542609Y-0362742D01*
X-1541508D01*
X-1540406D01*
X-1539305Y-0363843D01*
X-1538204D01*
X-1537102Y-0364944D01*
X-1536001D01*
X-1534900D01*
X-1533799Y-0366045D01*
X-1532697D01*
X-1531596Y-0367147D01*
X-1530495D01*
X-1529394D01*
X-1528292Y-0368248D01*
X-1527191D01*
X-1526090D01*
X-1524989Y-0369349D01*
X-1523887D01*
X-1522786Y-0370450D01*
X-1521685D01*
X-1520584D01*
X-1519482Y-0371552D01*
X-1518381D01*
X-1517280D01*
X-1516179Y-0372653D01*
X-1515077D01*
X-1513976Y-0373754D01*
X-1512875D01*
X-1511773D01*
X-1510672Y-0374855D01*
X-1509571D01*
X-1508470Y-0375957D01*
X-1507368D01*
X-1506267D01*
X-1505166Y-0377058D01*
X-1504065D01*
X-1502963D01*
X-1501862Y-0378159D01*
X-1500761D01*
X-1499660Y-0379261D01*
X-1498558D01*
X-1497457D01*
X-1496356Y-0380362D01*
X-1495255D01*
X-1494153Y-0381463D01*
X-1493052D01*
X-1491951D01*
X-1490850Y-0382564D01*
X-1489748D01*
X-1488647D01*
X-1487546Y-0383666D01*
X-1486444D01*
X-1485343Y-0384767D01*
X-1484242D01*
X-1483141D01*
X-1482039Y-0385868D01*
X-1480938D01*
X-1479837Y-0386969D01*
X-1478736D01*
X-1477634D01*
X-1476533Y-0388071D01*
X-1475432D01*
X-1474331D01*
X-1473229Y-0389172D01*
X-1472128D01*
X-1471027Y-0390273D01*
X-1469926D01*
X-1468824D01*
X-1467723Y-0391374D01*
X-1466622D01*
X-1465521D01*
X-1464419Y-0392476D01*
X-1463318D01*
X-1462217Y-0393577D01*
X-1461115D01*
X-1460014D01*
X-1458913Y-0394678D01*
X-1457812D01*
X-1456710D01*
X-1455609Y-0395779D01*
X-1454508D01*
X-1453407Y-0396881D01*
X-1452305D01*
X-1451204D01*
X-1450103Y-0397982D01*
X-1449002D01*
X-1447900Y-0399083D01*
X-1446799D01*
X-1445698D01*
X-1444597Y-0400184D01*
X-1443495D01*
X-1442394D01*
X-1441293Y-0401286D01*
X-1440192D01*
X-1439090Y-0402387D01*
X-1437989D01*
X-1436888D01*
X-1435786Y-0403488D01*
X-1434685D01*
X-1433584D01*
X-1432483Y-0404590D01*
X-1431381D01*
X-1430280Y-0405691D01*
X-1429179D01*
X-1428078D01*
Y-0406792D01*
Y-0407893D01*
Y-0408995D01*
Y-0410096D01*
Y-0411197D01*
Y-0412298D01*
Y-0413400D01*
Y-0414501D01*
Y-0415602D01*
Y-0416703D01*
Y-0417805D01*
Y-0418906D01*
Y-0420007D01*
Y-0421108D01*
Y-0422210D01*
Y-0423311D01*
Y-0424412D01*
Y-0425513D01*
Y-0426615D01*
Y-0427716D01*
Y-0428817D01*
Y-0429919D01*
Y-0431020D01*
X-1429179D01*
X-1430280Y-0432121D01*
X-1431381D01*
X-1432483D01*
X-1433584Y-0433222D01*
X-1434685D01*
X-1435786Y-0434324D01*
X-1436888D01*
X-1437989D01*
X-1439090Y-0435425D01*
X-1440192D01*
X-1441293D01*
X-1442394Y-0436526D01*
X-1443495D01*
X-1444597Y-0437627D01*
X-1445698D01*
X-1446799D01*
X-1447900Y-0438729D01*
X-1449002D01*
X-1450103D01*
X-1451204Y-0439830D01*
X-1452305D01*
X-1453407Y-0440931D01*
X-1454508D01*
X-1455609D01*
X-1456710Y-0442032D01*
X-1457812D01*
X-1458913Y-0443134D01*
X-1460014D01*
X-1461115D01*
X-1462217Y-0444235D01*
X-1463318D01*
X-1464419D01*
X-1465521Y-0445336D01*
X-1466622D01*
X-1467723Y-0446437D01*
X-1468824D01*
X-1469926D01*
X-1471027Y-0447539D01*
X-1472128D01*
X-1473229Y-0448640D01*
X-1474331D01*
X-1475432D01*
X-1476533Y-0449741D01*
X-1477634D01*
X-1478736D01*
X-1479837Y-0450842D01*
X-1480938D01*
X-1482039Y-0451944D01*
X-1483141D01*
X-1484242D01*
X-1485343Y-0453045D01*
X-1486444D01*
X-1487546D01*
X-1488647Y-0454146D01*
X-1489748D01*
X-1490850Y-0455248D01*
X-1491951D01*
X-1493052D01*
X-1494153Y-0456349D01*
X-1495255D01*
X-1496356D01*
X-1497457Y-0457450D01*
X-1498558D01*
X-1499660Y-0458551D01*
X-1500761D01*
X-1501862D01*
X-1502963Y-0459653D01*
X-1504065D01*
X-1505166D01*
X-1506267Y-0460754D01*
X-1507368D01*
X-1508470Y-0461855D01*
X-1509571D01*
X-1510672D01*
X-1511773Y-0462956D01*
X-1512875D01*
X-1513976Y-0464058D01*
X-1515077D01*
X-1516179D01*
X-1517280Y-0465159D01*
X-1518381D01*
X-1519482D01*
X-1520584Y-0466260D01*
X-1521685D01*
X-1522786Y-0467361D01*
X-1523887D01*
X-1524989D01*
X-1526090Y-0468463D01*
X-1527191D01*
X-1528292D01*
X-1529394Y-0469564D01*
X-1530495D01*
X-1531596Y-0470665D01*
X-1532697D01*
X-1533799D01*
X-1534900Y-0471766D01*
X-1536001D01*
X-1537102Y-0472868D01*
X-1538204D01*
X-1539305D01*
X-1540406Y-0473969D01*
X-1541508D01*
X-1542609D01*
X-1543710Y-0475070D01*
X-1544811D01*
X-1545913Y-0476171D01*
X-1547014D01*
X-1548115D01*
X-1549216Y-0477273D01*
X-1550318D01*
X-1551419Y-0478374D01*
X-1552520D01*
X-1553621D01*
X-1554723Y-0479475D01*
X-1555824D01*
X-1556925D01*
X-1558026Y-0480577D01*
X-1559128D01*
X-1560229Y-0481678D01*
X-1561330D01*
X-1562431D01*
X-1563533Y-0482779D01*
X-1564634D01*
X-1565735D01*
X-1566837Y-0483880D01*
X-1567938D01*
X-1569039Y-0484982D01*
X-1570140D01*
X-1571242D01*
X-1572343Y-0486083D01*
X-1573444D01*
X-1574545Y-0487184D01*
X-1575647D01*
X-1576748D01*
X-1577849Y-0488285D01*
X-1578950D01*
X-1580052D01*
X-1581153Y-0489387D01*
X-1582254D01*
Y-0488285D01*
Y-0487184D01*
Y-0486083D01*
Y-0484982D01*
Y-0483880D01*
Y-0482779D01*
Y-0481678D01*
Y-0480577D01*
Y-0479475D01*
Y-0478374D01*
Y-0477273D01*
Y-0476171D01*
Y-0475070D01*
Y-0473969D01*
Y-0472868D01*
Y-0471766D01*
Y-0470665D01*
Y-0469564D01*
X-1581153D01*
X-1580052Y-0468463D01*
X-1578950D01*
X-1577849D01*
X-1576748Y-0467361D01*
X-1575647D01*
X-1574545D01*
X-1573444Y-0466260D01*
X-1572343D01*
X-1571242D01*
X-1570140Y-0465159D01*
X-1569039D01*
X-1567938D01*
X-1566837Y-0464058D01*
X-1565735D01*
X-1564634Y-0462956D01*
X-1563533D01*
X-1562431D01*
X-1561330Y-0461855D01*
X-1560229D01*
X-1559128D01*
X-1558026Y-0460754D01*
X-1556925D01*
X-1555824D01*
X-1554723Y-0459653D01*
X-1553621D01*
X-1552520D01*
X-1551419Y-0458551D01*
X-1550318D01*
X-1549216D01*
X-1548115Y-0457450D01*
X-1547014D01*
X-1545913Y-0456349D01*
X-1544811D01*
X-1543710D01*
X-1542609Y-0455248D01*
X-1541508Y-0454146D01*
Y-0453045D01*
Y-0451944D01*
Y-0450842D01*
Y-0449741D01*
Y-0448640D01*
Y-0447539D01*
Y-0446437D01*
Y-0445336D01*
Y-0444235D01*
Y-0443134D01*
Y-0442032D01*
Y-0440931D01*
Y-0439830D01*
Y-0438729D01*
Y-0437627D01*
Y-0436526D01*
Y-0435425D01*
Y-0434324D01*
Y-0433222D01*
Y-0432121D01*
Y-0431020D01*
Y-0429919D01*
Y-0428817D01*
Y-0427716D01*
Y-0426615D01*
Y-0425513D01*
Y-0424412D01*
Y-0423311D01*
Y-0422210D01*
Y-0421108D01*
Y-0420007D01*
Y-0418906D01*
Y-0417805D01*
Y-0416703D01*
Y-0415602D01*
Y-0414501D01*
Y-0413400D01*
Y-0412298D01*
Y-0411197D01*
Y-0410096D01*
Y-0408995D01*
Y-0407893D01*
Y-0406792D01*
Y-0405691D01*
Y-0404590D01*
Y-0403488D01*
Y-0402387D01*
Y-0401286D01*
Y-0400184D01*
Y-0399083D01*
Y-0397982D01*
Y-0396881D01*
Y-0395779D01*
Y-0394678D01*
Y-0393577D01*
Y-0392476D01*
Y-0391374D01*
Y-0390273D01*
Y-0389172D01*
Y-0388071D01*
Y-0386969D01*
Y-0385868D01*
Y-0384767D01*
Y-0383666D01*
Y-0382564D01*
X-1542609Y-0381463D01*
X-1543710D01*
X-1544811Y-0380362D01*
X-1545913D01*
X-1547014D01*
X-1548115Y-0379261D01*
X-1549216D01*
X-1550318D01*
X-1551419Y-0378159D01*
X-1552520D01*
X-1553621D01*
X-1554723Y-0377058D01*
X-1555824D01*
X-1556925Y-0375957D01*
X-1558026D01*
X-1559128D01*
X-1560229Y-0374855D01*
X-1561330D01*
X-1562431D01*
X-1563533Y-0373754D01*
X-1564634D01*
X-1565735D01*
X-1566837Y-0372653D01*
X-1567938D01*
X-1569039D01*
X-1570140Y-0371552D01*
X-1571242D01*
X-1572343Y-0370450D01*
X-1573444D01*
X-1574545D01*
X-1575647Y-0369349D01*
X-1576748D01*
X-1577849D01*
X-1578950Y-0368248D01*
X-1580052D01*
X-1581153D01*
X-1582254Y-0367147D01*
Y-0366045D01*
Y-0364944D01*
Y-0363843D01*
Y-0362742D01*
Y-0361640D01*
Y-0360539D01*
Y-0359438D01*
Y-0358337D01*
Y-0357235D01*
Y-0356134D01*
Y-0355033D01*
Y-0353932D01*
Y-0352830D01*
Y-0351729D01*
Y-0350628D01*
Y-0349526D01*
Y-0348425D01*
Y-0347324D01*
X-1581153D01*
G37*
G36*
X-1559128Y-0579690D02*
X-1560229Y-0580791D01*
Y-0581893D01*
X-1561330Y-0582994D01*
Y-0584095D01*
X-1562431Y-0585196D01*
Y-0586298D01*
X-1563533Y-0587399D01*
Y-0588500D01*
Y-0589601D01*
X-1564634Y-0590703D01*
Y-0591804D01*
X-1565735Y-0592905D01*
Y-0594006D01*
Y-0595108D01*
Y-0596209D01*
X-1566837Y-0597310D01*
Y-0598411D01*
Y-0599513D01*
Y-0600614D01*
X-1567938Y-0601715D01*
Y-0602816D01*
Y-0603918D01*
Y-0605019D01*
Y-0606120D01*
Y-0607222D01*
X-1569039Y-0608323D01*
Y-0609424D01*
Y-0610525D01*
Y-0611627D01*
Y-0612728D01*
Y-0613829D01*
Y-0614930D01*
Y-0616032D01*
Y-0617133D01*
Y-0618234D01*
Y-0619335D01*
Y-0620437D01*
Y-0621538D01*
Y-0622639D01*
Y-0623740D01*
Y-0624842D01*
Y-0625943D01*
Y-0627044D01*
Y-0628145D01*
Y-0629247D01*
Y-0630348D01*
Y-0631449D01*
X-1567938Y-0632551D01*
Y-0633652D01*
Y-0634753D01*
Y-0635854D01*
X-1566837Y-0636956D01*
Y-0638057D01*
Y-0639158D01*
X-1565735Y-0640259D01*
Y-0641361D01*
X-1564634Y-0642462D01*
Y-0643563D01*
X-1563533Y-0644664D01*
Y-0645766D01*
X-1562431Y-0646867D01*
X-1561330Y-0647968D01*
X-1560229Y-0649069D01*
Y-0650171D01*
X-1559128Y-0651272D01*
X-1558026Y-0652373D01*
X-1556925Y-0653474D01*
X-1555824D01*
X-1554723Y-0654576D01*
X-1553621Y-0655677D01*
X-1552520Y-0656778D01*
X-1551419D01*
X-1550318Y-0657880D01*
X-1549216D01*
X-1548115Y-0658981D01*
X-1547014D01*
X-1545913D01*
X-1544811Y-0660082D01*
X-1543710D01*
X-1542609D01*
X-1541508Y-0661183D01*
X-1540406D01*
X-1539305D01*
X-1538204D01*
X-1537102D01*
X-1536001D01*
X-1534900D01*
X-1533799D01*
X-1532697D01*
X-1531596D01*
X-1530495D01*
X-1529394D01*
X-1528292D01*
X-1527191D01*
X-1526090D01*
X-1524989D01*
X-1523887D01*
X-1522786Y-0660082D01*
X-1521685D01*
X-1520584D01*
X-1519482D01*
X-1518381Y-0658981D01*
X-1517280D01*
X-1516179D01*
X-1515077Y-0657880D01*
X-1513976D01*
X-1512875Y-0656778D01*
X-1511773Y-0655677D01*
X-1510672D01*
X-1509571Y-0654576D01*
X-1508470Y-0653474D01*
X-1507368Y-0652373D01*
X-1506267Y-0651272D01*
X-1505166Y-0650171D01*
X-1504065Y-0649069D01*
X-1502963Y-0647968D01*
Y-0646867D01*
X-1501862Y-0645766D01*
X-1500761Y-0644664D01*
Y-0643563D01*
X-1499660Y-0642462D01*
Y-0641361D01*
X-1498558Y-0640259D01*
Y-0639158D01*
X-1497457Y-0638057D01*
Y-0636956D01*
Y-0635854D01*
Y-0634753D01*
X-1496356Y-0633652D01*
Y-0632551D01*
Y-0631449D01*
Y-0630348D01*
Y-0629247D01*
X-1495255Y-0628145D01*
Y-0627044D01*
Y-0625943D01*
Y-0624842D01*
Y-0623740D01*
Y-0622639D01*
Y-0621538D01*
Y-0620437D01*
Y-0619335D01*
Y-0618234D01*
Y-0617133D01*
Y-0616032D01*
Y-0614930D01*
Y-0613829D01*
Y-0612728D01*
X-1496356Y-0611627D01*
Y-0610525D01*
Y-0609424D01*
Y-0608323D01*
Y-0607222D01*
Y-0606120D01*
Y-0605019D01*
X-1497457Y-0603918D01*
Y-0602816D01*
Y-0601715D01*
Y-0600614D01*
X-1498558Y-0599513D01*
Y-0598411D01*
Y-0597310D01*
Y-0596209D01*
X-1499660Y-0595108D01*
Y-0594006D01*
Y-0592905D01*
X-1500761Y-0591804D01*
Y-0590703D01*
X-1501862Y-0589601D01*
Y-0588500D01*
Y-0587399D01*
X-1502963Y-0586298D01*
X-1501862D01*
X-1500761D01*
X-1499660D01*
X-1498558D01*
X-1497457D01*
X-1496356D01*
X-1495255D01*
X-1494153D01*
X-1493052D01*
X-1491951D01*
X-1490850D01*
X-1489748D01*
X-1488647D01*
X-1487546D01*
X-1486444D01*
X-1485343D01*
X-1484242D01*
X-1483141D01*
X-1482039D01*
X-1480938D01*
X-1479837D01*
X-1478736D01*
X-1477634D01*
X-1476533D01*
X-1475432D01*
X-1474331D01*
X-1473229D01*
X-1472128D01*
X-1471027D01*
X-1469926D01*
X-1468824D01*
X-1467723D01*
X-1466622D01*
X-1465521D01*
X-1464419D01*
X-1463318D01*
X-1462217D01*
X-1461115D01*
X-1460014D01*
X-1458913D01*
X-1457812D01*
X-1456710D01*
X-1455609D01*
X-1454508D01*
X-1453407D01*
X-1452305D01*
X-1451204D01*
X-1450103D01*
X-1449002D01*
X-1447900D01*
X-1446799D01*
X-1445698D01*
X-1444597D01*
X-1443495D01*
X-1442394D01*
X-1441293D01*
X-1440192D01*
X-1439090D01*
X-1437989D01*
X-1436888D01*
X-1435786D01*
X-1434685D01*
X-1433584D01*
X-1432483D01*
X-1431381D01*
X-1430280D01*
X-1429179D01*
X-1428078D01*
Y-0587399D01*
Y-0588500D01*
Y-0589601D01*
Y-0590703D01*
Y-0591804D01*
Y-0592905D01*
Y-0594006D01*
Y-0595108D01*
Y-0596209D01*
Y-0597310D01*
Y-0598411D01*
Y-0599513D01*
Y-0600614D01*
Y-0601715D01*
Y-0602816D01*
Y-0603918D01*
Y-0605019D01*
Y-0606120D01*
Y-0607222D01*
Y-0608323D01*
Y-0609424D01*
Y-0610525D01*
Y-0611627D01*
Y-0612728D01*
Y-0613829D01*
Y-0614930D01*
Y-0616032D01*
Y-0617133D01*
Y-0618234D01*
Y-0619335D01*
Y-0620437D01*
Y-0621538D01*
Y-0622639D01*
Y-0623740D01*
Y-0624842D01*
Y-0625943D01*
Y-0627044D01*
Y-0628145D01*
Y-0629247D01*
Y-0630348D01*
Y-0631449D01*
Y-0632551D01*
Y-0633652D01*
Y-0634753D01*
Y-0635854D01*
Y-0636956D01*
Y-0638057D01*
Y-0639158D01*
Y-0640259D01*
Y-0641361D01*
Y-0642462D01*
Y-0643563D01*
Y-0644664D01*
Y-0645766D01*
Y-0646867D01*
Y-0647968D01*
Y-0649069D01*
Y-0650171D01*
Y-0651272D01*
Y-0652373D01*
Y-0653474D01*
Y-0654576D01*
Y-0655677D01*
Y-0656778D01*
Y-0657880D01*
Y-0658981D01*
Y-0660082D01*
Y-0661183D01*
Y-0662285D01*
Y-0663386D01*
Y-0664487D01*
Y-0665588D01*
Y-0666690D01*
Y-0667791D01*
Y-0668892D01*
X-1429179D01*
X-1430280D01*
X-1431381D01*
X-1432483D01*
X-1433584D01*
X-1434685D01*
X-1435786D01*
X-1436888D01*
X-1437989D01*
X-1439090D01*
X-1440192D01*
X-1441293D01*
Y-0667791D01*
Y-0666690D01*
Y-0665588D01*
Y-0664487D01*
Y-0663386D01*
Y-0662285D01*
Y-0661183D01*
Y-0660082D01*
Y-0658981D01*
Y-0657880D01*
Y-0656778D01*
Y-0655677D01*
Y-0654576D01*
Y-0653474D01*
Y-0652373D01*
Y-0651272D01*
Y-0650171D01*
Y-0649069D01*
Y-0647968D01*
Y-0646867D01*
Y-0645766D01*
Y-0644664D01*
Y-0643563D01*
Y-0642462D01*
Y-0641361D01*
Y-0640259D01*
Y-0639158D01*
Y-0638057D01*
Y-0636956D01*
Y-0635854D01*
Y-0634753D01*
Y-0633652D01*
Y-0632551D01*
Y-0631449D01*
Y-0630348D01*
Y-0629247D01*
Y-0628145D01*
Y-0627044D01*
Y-0625943D01*
Y-0624842D01*
Y-0623740D01*
Y-0622639D01*
Y-0621538D01*
Y-0620437D01*
Y-0619335D01*
Y-0618234D01*
Y-0617133D01*
Y-0616032D01*
Y-0614930D01*
Y-0613829D01*
Y-0612728D01*
Y-0611627D01*
Y-0610525D01*
Y-0609424D01*
Y-0608323D01*
Y-0607222D01*
Y-0606120D01*
Y-0605019D01*
X-1442394Y-0603918D01*
X-1443495D01*
X-1444597D01*
X-1445698D01*
X-1446799D01*
X-1447900D01*
X-1449002D01*
X-1450103D01*
X-1451204D01*
X-1452305D01*
X-1453407D01*
X-1454508D01*
X-1455609D01*
X-1456710D01*
X-1457812D01*
X-1458913D01*
X-1460014D01*
X-1461115D01*
X-1462217D01*
X-1463318D01*
X-1464419D01*
X-1465521D01*
X-1466622D01*
X-1467723D01*
X-1468824D01*
X-1469926D01*
X-1471027D01*
X-1472128D01*
X-1473229D01*
X-1474331D01*
X-1475432D01*
X-1476533D01*
X-1477634D01*
X-1478736D01*
X-1479837D01*
X-1480938D01*
X-1482039Y-0605019D01*
Y-0606120D01*
Y-0607222D01*
Y-0608323D01*
Y-0609424D01*
X-1480938Y-0610525D01*
Y-0611627D01*
Y-0612728D01*
X-1479837Y-0613829D01*
Y-0614930D01*
Y-0616032D01*
Y-0617133D01*
Y-0618234D01*
Y-0619335D01*
Y-0620437D01*
Y-0621538D01*
Y-0622639D01*
Y-0623740D01*
Y-0624842D01*
Y-0625943D01*
Y-0627044D01*
Y-0628145D01*
Y-0629247D01*
Y-0630348D01*
Y-0631449D01*
Y-0632551D01*
Y-0633652D01*
Y-0634753D01*
Y-0635854D01*
Y-0636956D01*
X-1480938Y-0638057D01*
Y-0639158D01*
Y-0640259D01*
Y-0641361D01*
Y-0642462D01*
X-1482039Y-0643563D01*
Y-0644664D01*
Y-0645766D01*
X-1483141Y-0646867D01*
Y-0647968D01*
Y-0649069D01*
X-1484242Y-0650171D01*
Y-0651272D01*
X-1485343Y-0652373D01*
Y-0653474D01*
Y-0654576D01*
X-1486444Y-0655677D01*
X-1487546Y-0656778D01*
Y-0657880D01*
X-1488647Y-0658981D01*
Y-0660082D01*
X-1489748Y-0661183D01*
X-1490850Y-0662285D01*
X-1491951Y-0663386D01*
X-1493052Y-0664487D01*
X-1494153Y-0665588D01*
Y-0666690D01*
X-1495255Y-0667791D01*
X-1496356D01*
X-1497457Y-0668892D01*
X-1498558Y-0669993D01*
X-1499660Y-0671095D01*
X-1500761Y-0672196D01*
X-1501862D01*
X-1502963Y-0673297D01*
X-1504065Y-0674398D01*
X-1505166D01*
X-1506267Y-0675500D01*
X-1507368D01*
X-1508470Y-0676601D01*
X-1509571D01*
X-1510672D01*
X-1511773Y-0677702D01*
X-1512875D01*
X-1513976Y-0678803D01*
X-1515077D01*
X-1516179D01*
X-1517280D01*
X-1518381Y-0679905D01*
X-1519482D01*
X-1520584D01*
X-1521685D01*
X-1522786D01*
X-1523887D01*
X-1524989Y-0681006D01*
X-1526090D01*
X-1527191D01*
X-1528292D01*
X-1529394D01*
X-1530495D01*
X-1531596D01*
X-1532697D01*
X-1533799D01*
X-1534900D01*
X-1536001D01*
X-1537102D01*
X-1538204D01*
X-1539305D01*
X-1540406D01*
X-1541508Y-0679905D01*
X-1542609D01*
X-1543710D01*
X-1544811D01*
X-1545913D01*
X-1547014D01*
X-1548115Y-0678803D01*
X-1549216D01*
X-1550318D01*
X-1551419Y-0677702D01*
X-1552520D01*
X-1553621D01*
X-1554723Y-0676601D01*
X-1555824D01*
X-1556925Y-0675500D01*
X-1558026D01*
X-1559128Y-0674398D01*
X-1560229D01*
X-1561330Y-0673297D01*
X-1562431D01*
X-1563533Y-0672196D01*
X-1564634Y-0671095D01*
X-1565735Y-0669993D01*
X-1566837D01*
X-1567938Y-0668892D01*
X-1569039Y-0667791D01*
X-1570140Y-0666690D01*
X-1571242Y-0665588D01*
X-1572343Y-0664487D01*
X-1573444Y-0663386D01*
Y-0662285D01*
X-1574545Y-0661183D01*
X-1575647Y-0660082D01*
Y-0658981D01*
X-1576748Y-0657880D01*
X-1577849Y-0656778D01*
Y-0655677D01*
X-1578950Y-0654576D01*
Y-0653474D01*
X-1580052Y-0652373D01*
Y-0651272D01*
Y-0650171D01*
X-1581153Y-0649069D01*
Y-0647968D01*
Y-0646867D01*
X-1582254Y-0645766D01*
Y-0644664D01*
Y-0643563D01*
X-1583355Y-0642462D01*
Y-0641361D01*
Y-0640259D01*
Y-0639158D01*
Y-0638057D01*
X-1584457Y-0636956D01*
Y-0635854D01*
Y-0634753D01*
Y-0633652D01*
Y-0632551D01*
Y-0631449D01*
Y-0630348D01*
X-1585558Y-0629247D01*
Y-0628145D01*
Y-0627044D01*
Y-0625943D01*
Y-0624842D01*
Y-0623740D01*
Y-0622639D01*
Y-0621538D01*
Y-0620437D01*
Y-0619335D01*
Y-0618234D01*
Y-0617133D01*
Y-0616032D01*
Y-0614930D01*
Y-0613829D01*
Y-0612728D01*
X-1584457Y-0611627D01*
Y-0610525D01*
Y-0609424D01*
Y-0608323D01*
Y-0607222D01*
Y-0606120D01*
Y-0605019D01*
Y-0603918D01*
Y-0602816D01*
X-1583355Y-0601715D01*
Y-0600614D01*
Y-0599513D01*
Y-0598411D01*
Y-0597310D01*
X-1582254Y-0596209D01*
Y-0595108D01*
Y-0594006D01*
Y-0592905D01*
Y-0591804D01*
X-1581153Y-0590703D01*
Y-0589601D01*
Y-0588500D01*
Y-0587399D01*
X-1580052Y-0586298D01*
Y-0585196D01*
Y-0584095D01*
Y-0582994D01*
X-1578950Y-0581893D01*
Y-0580791D01*
Y-0579690D01*
X-1577849D01*
X-1576748D01*
X-1575647D01*
X-1574545D01*
X-1573444D01*
X-1572343D01*
X-1571242D01*
X-1570140D01*
X-1569039D01*
X-1567938D01*
X-1566837D01*
X-1565735D01*
X-1564634D01*
X-1563533D01*
X-1562431D01*
X-1561330D01*
X-1560229D01*
X-1559128D01*
G37*
G36*
X-1490850Y-0716246D02*
X-1489748Y-0717348D01*
X-1488647D01*
X-1487546D01*
X-1486444D01*
X-1485343D01*
X-1484242D01*
X-1483141D01*
X-1482039D01*
X-1480938D01*
X-1479837Y-0718449D01*
X-1478736D01*
X-1477634D01*
X-1476533D01*
X-1475432D01*
X-1474331D01*
X-1473229Y-0719550D01*
X-1472128D01*
X-1471027D01*
X-1469926D01*
X-1468824D01*
X-1467723Y-0720651D01*
X-1466622D01*
X-1465521D01*
X-1464419D01*
X-1463318Y-0721753D01*
X-1462217D01*
X-1461115D01*
X-1460014Y-0722854D01*
X-1458913D01*
X-1457812D01*
X-1456710Y-0723955D01*
X-1455609D01*
X-1454508D01*
X-1453407Y-0725056D01*
X-1452305D01*
X-1451204Y-0726158D01*
X-1450103D01*
X-1449002Y-0727259D01*
X-1447900D01*
X-1446799Y-0728360D01*
X-1445698Y-0729461D01*
X-1444597D01*
X-1443495Y-0730563D01*
X-1442394D01*
X-1441293Y-0731664D01*
X-1440192Y-0732765D01*
X-1439090Y-0733867D01*
X-1437989Y-0734968D01*
X-1436888D01*
X-1435786Y-0736069D01*
X-1434685Y-0737170D01*
X-1433584Y-0738272D01*
Y-0739373D01*
X-1432483Y-0740474D01*
X-1431381Y-0741575D01*
X-1430280Y-0742677D01*
Y-0743778D01*
X-1429179Y-0744879D01*
X-1428078Y-0745980D01*
Y-0747082D01*
Y-0748183D01*
Y-0749284D01*
Y-0750385D01*
Y-0751487D01*
Y-0752588D01*
Y-0753689D01*
Y-0754790D01*
Y-0755892D01*
Y-0756993D01*
Y-0758094D01*
Y-0759196D01*
Y-0760297D01*
Y-0761398D01*
Y-0762499D01*
Y-0763601D01*
Y-0764702D01*
Y-0765803D01*
Y-0766904D01*
Y-0768006D01*
Y-0769107D01*
Y-0770208D01*
Y-0771309D01*
Y-0772411D01*
Y-0773512D01*
Y-0774613D01*
Y-0775714D01*
Y-0776816D01*
Y-0777917D01*
Y-0779018D01*
Y-0780119D01*
Y-0781221D01*
Y-0782322D01*
Y-0783423D01*
Y-0784525D01*
Y-0785626D01*
Y-0786727D01*
Y-0787828D01*
Y-0788930D01*
Y-0790031D01*
Y-0791132D01*
Y-0792233D01*
Y-0793335D01*
Y-0794436D01*
X-1429179Y-0795537D01*
X-1430280Y-0796638D01*
Y-0797740D01*
X-1431381Y-0798841D01*
X-1432483Y-0799942D01*
Y-0801043D01*
X-1433584Y-0802145D01*
X-1434685Y-0803246D01*
X-1435786Y-0804347D01*
X-1436888Y-0805448D01*
X-1437989Y-0806550D01*
X-1439090D01*
X-1440192Y-0807651D01*
X-1441293Y-0808752D01*
X-1442394Y-0809854D01*
X-1443495D01*
X-1444597Y-0810955D01*
X-1445698Y-0812056D01*
X-1446799D01*
X-1447900Y-0813157D01*
X-1449002D01*
X-1450103Y-0814259D01*
X-1451204D01*
X-1452305Y-0815360D01*
X-1453407D01*
X-1454508Y-0816461D01*
X-1455609D01*
X-1456710Y-0817562D01*
X-1457812D01*
X-1458913D01*
X-1460014D01*
X-1461115Y-0818664D01*
X-1462217D01*
X-1463318D01*
X-1464419Y-0819765D01*
X-1465521D01*
X-1466622D01*
X-1467723Y-0820866D01*
X-1468824D01*
X-1469926D01*
X-1471027D01*
X-1472128D01*
X-1473229Y-0821967D01*
X-1474331D01*
X-1475432D01*
X-1476533D01*
X-1477634D01*
X-1478736D01*
X-1479837Y-0823069D01*
X-1480938D01*
X-1482039D01*
X-1483141D01*
X-1484242D01*
X-1485343D01*
X-1486444D01*
X-1487546D01*
X-1488647D01*
X-1489748D01*
X-1490850Y-0824170D01*
X-1491951D01*
X-1493052D01*
X-1494153D01*
X-1495255D01*
X-1496356D01*
X-1497457D01*
X-1498558D01*
X-1499660D01*
X-1500761D01*
X-1501862D01*
X-1502963D01*
X-1504065D01*
X-1505166D01*
X-1506267D01*
X-1507368D01*
X-1508470D01*
X-1509571D01*
X-1510672D01*
X-1511773D01*
X-1512875D01*
X-1513976D01*
X-1515077D01*
X-1516179D01*
X-1517280D01*
X-1518381Y-0823069D01*
X-1519482D01*
X-1520584D01*
X-1521685D01*
X-1522786D01*
X-1523887D01*
X-1524989D01*
X-1526090D01*
X-1527191D01*
X-1528292D01*
X-1529394Y-0821967D01*
X-1530495D01*
X-1531596D01*
X-1532697D01*
X-1533799D01*
X-1534900D01*
X-1536001Y-0820866D01*
X-1537102D01*
X-1538204D01*
X-1539305D01*
X-1540406Y-0819765D01*
X-1541508D01*
X-1542609D01*
X-1543710D01*
X-1544811Y-0818664D01*
X-1545913D01*
X-1547014D01*
X-1548115Y-0817562D01*
X-1549216D01*
X-1550318D01*
X-1551419Y-0816461D01*
X-1552520D01*
X-1553621D01*
X-1554723Y-0815360D01*
X-1555824D01*
X-1556925Y-0814259D01*
X-1558026D01*
X-1559128Y-0813157D01*
X-1560229D01*
X-1561330Y-0812056D01*
X-1562431D01*
X-1563533Y-0810955D01*
X-1564634Y-0809854D01*
X-1565735D01*
X-1566837Y-0808752D01*
X-1567938Y-0807651D01*
X-1569039Y-0806550D01*
X-1570140D01*
X-1571242Y-0805448D01*
X-1572343Y-0804347D01*
X-1573444Y-0803246D01*
X-1574545Y-0802145D01*
X-1575647Y-0801043D01*
Y-0799942D01*
X-1576748Y-0798841D01*
X-1577849Y-0797740D01*
Y-0796638D01*
X-1578950Y-0795537D01*
X-1580052Y-0794436D01*
Y-0793335D01*
X-1581153Y-0792233D01*
Y-0791132D01*
Y-0790031D01*
X-1582254Y-0788930D01*
Y-0787828D01*
X-1583355Y-0786727D01*
Y-0785626D01*
Y-0784525D01*
Y-0783423D01*
X-1584457Y-0782322D01*
Y-0781221D01*
Y-0780119D01*
Y-0779018D01*
Y-0777917D01*
Y-0776816D01*
X-1585558Y-0775714D01*
Y-0774613D01*
Y-0773512D01*
Y-0772411D01*
Y-0771309D01*
Y-0770208D01*
Y-0769107D01*
Y-0768006D01*
Y-0766904D01*
Y-0765803D01*
Y-0764702D01*
X-1584457Y-0763601D01*
Y-0762499D01*
Y-0761398D01*
Y-0760297D01*
Y-0759196D01*
Y-0758094D01*
X-1583355Y-0756993D01*
Y-0755892D01*
Y-0754790D01*
Y-0753689D01*
X-1582254Y-0752588D01*
Y-0751487D01*
X-1581153Y-0750385D01*
Y-0749284D01*
X-1580052Y-0748183D01*
Y-0747082D01*
X-1578950Y-0745980D01*
Y-0744879D01*
X-1577849Y-0743778D01*
Y-0742677D01*
X-1576748Y-0741575D01*
X-1575647Y-0740474D01*
X-1574545Y-0739373D01*
X-1573444Y-0738272D01*
X-1572343Y-0737170D01*
Y-0736069D01*
X-1571242D01*
X-1570140Y-0734968D01*
X-1569039Y-0733867D01*
X-1567938Y-0732765D01*
X-1566837Y-0731664D01*
X-1565735Y-0730563D01*
X-1564634D01*
X-1563533Y-0729461D01*
X-1562431Y-0728360D01*
X-1561330D01*
X-1560229Y-0727259D01*
X-1559128D01*
X-1558026Y-0726158D01*
X-1556925D01*
X-1555824Y-0725056D01*
X-1554723D01*
X-1553621D01*
X-1552520Y-0723955D01*
X-1551419D01*
X-1550318Y-0722854D01*
X-1549216D01*
X-1548115D01*
X-1547014Y-0721753D01*
X-1545913D01*
X-1544811D01*
X-1543710Y-0720651D01*
X-1542609D01*
X-1541508D01*
X-1540406D01*
X-1539305Y-0719550D01*
X-1538204D01*
X-1537102D01*
X-1536001D01*
X-1534900D01*
X-1533799Y-0718449D01*
X-1532697D01*
X-1531596D01*
X-1530495D01*
X-1529394D01*
X-1528292D01*
X-1527191Y-0717348D01*
X-1526090D01*
X-1524989D01*
X-1523887D01*
X-1522786D01*
X-1521685D01*
X-1520584D01*
X-1519482D01*
X-1518381D01*
X-1517280Y-0716246D01*
X-1516179D01*
X-1515077D01*
X-1513976D01*
X-1512875D01*
X-1511773D01*
X-1510672D01*
X-1509571D01*
X-1508470D01*
X-1507368D01*
X-1506267D01*
X-1505166D01*
X-1504065D01*
X-1502963D01*
X-1501862D01*
X-1500761D01*
X-1499660D01*
X-1498558D01*
X-1497457D01*
X-1496356D01*
X-1495255D01*
X-1494153D01*
X-1493052D01*
X-1491951D01*
X-1490850D01*
G37*
G36*
X-1512875Y-0852803D02*
X-1511773Y-0853904D01*
X-1510672D01*
X-1509571D01*
X-1508470D01*
X-1507368D01*
X-1506267D01*
X-1505166Y-0855005D01*
X-1504065D01*
X-1502963D01*
X-1501862D01*
X-1500761Y-0856106D01*
X-1499660D01*
X-1498558D01*
X-1497457D01*
X-1496356Y-0857208D01*
X-1495255D01*
X-1494153Y-0858309D01*
X-1493052D01*
X-1491951D01*
X-1490850Y-0859410D01*
X-1489748D01*
X-1488647Y-0860512D01*
X-1487546D01*
X-1486444Y-0861613D01*
X-1485343Y-0862714D01*
X-1484242D01*
X-1483141Y-0863815D01*
X-1482039D01*
X-1480938Y-0864917D01*
X-1479837Y-0866018D01*
X-1478736Y-0867119D01*
X-1477634Y-0868220D01*
X-1476533Y-0869322D01*
X-1475432Y-0870423D01*
X-1474331Y-0871524D01*
X-1473229Y-0872625D01*
X-1472128Y-0873727D01*
Y-0874828D01*
X-1471027Y-0875929D01*
X-1469926Y-0877030D01*
Y-0878132D01*
X-1468824Y-0879233D01*
X-1467723Y-0880334D01*
Y-0881435D01*
X-1466622Y-0882537D01*
Y-0883638D01*
Y-0884739D01*
X-1465521Y-0885841D01*
Y-0886942D01*
Y-0888043D01*
X-1464419Y-0889144D01*
Y-0890246D01*
Y-0891347D01*
Y-0892448D01*
X-1463318Y-0893549D01*
Y-0894651D01*
Y-0895752D01*
Y-0896853D01*
Y-0897954D01*
Y-0899056D01*
X-1462217Y-0900157D01*
Y-0901258D01*
Y-0902359D01*
Y-0903461D01*
Y-0904562D01*
Y-0905663D01*
Y-0906764D01*
Y-0907866D01*
Y-0908967D01*
Y-0910068D01*
Y-0911170D01*
Y-0912271D01*
Y-0913372D01*
Y-0914473D01*
X-1463318Y-0915575D01*
Y-0916676D01*
Y-0917777D01*
Y-0918878D01*
Y-0919980D01*
X-1464419Y-0921081D01*
Y-0922182D01*
Y-0923283D01*
Y-0924385D01*
X-1465521Y-0925486D01*
Y-0926587D01*
Y-0927688D01*
X-1466622Y-0928790D01*
Y-0929891D01*
X-1467723Y-0930992D01*
Y-0932093D01*
X-1468824Y-0933195D01*
Y-0934296D01*
X-1469926Y-0935397D01*
Y-0936499D01*
X-1471027Y-0937600D01*
X-1472128Y-0938701D01*
X-1473229Y-0939802D01*
X-1474331Y-0940904D01*
Y-0942005D01*
X-1475432Y-0943106D01*
X-1476533Y-0944207D01*
X-1477634Y-0945309D01*
X-1478736D01*
X-1479837Y-0946410D01*
X-1480938Y-0947511D01*
X-1482039Y-0948612D01*
X-1483141D01*
X-1484242Y-0949714D01*
X-1485343Y-0950815D01*
X-1486444D01*
X-1487546Y-0951916D01*
X-1488647Y-0953017D01*
X-1489748D01*
X-1490850Y-0954119D01*
X-1491951D01*
X-1493052D01*
X-1494153Y-0955220D01*
X-1495255D01*
X-1496356Y-0956321D01*
X-1497457D01*
X-1498558D01*
X-1499660D01*
X-1500761Y-0957422D01*
X-1501862D01*
X-1502963D01*
X-1504065Y-0958524D01*
X-1505166D01*
X-1506267D01*
X-1507368D01*
X-1508470D01*
X-1509571D01*
X-1510672Y-0959625D01*
X-1511773D01*
X-1512875D01*
X-1513976D01*
X-1515077D01*
X-1516179D01*
X-1517280D01*
X-1518381D01*
X-1519482D01*
X-1520584D01*
X-1521685D01*
X-1522786D01*
X-1523887D01*
X-1524989D01*
X-1526090D01*
X-1527191D01*
X-1528292D01*
X-1529394D01*
X-1530495D01*
X-1531596D01*
X-1532697D01*
X-1533799D01*
X-1534900D01*
X-1536001D01*
X-1537102D01*
X-1538204Y-0958524D01*
X-1539305D01*
X-1540406D01*
X-1541508D01*
X-1542609D01*
X-1543710Y-0957422D01*
X-1544811D01*
X-1545913D01*
X-1547014D01*
X-1548115Y-0956321D01*
X-1549216D01*
X-1550318D01*
X-1551419D01*
X-1552520Y-0955220D01*
X-1553621D01*
X-1554723Y-0954119D01*
X-1555824D01*
X-1556925Y-0953017D01*
X-1558026D01*
X-1559128Y-0951916D01*
X-1560229D01*
X-1561330Y-0950815D01*
X-1562431D01*
X-1563533Y-0949714D01*
X-1564634Y-0948612D01*
X-1565735D01*
X-1566837Y-0947511D01*
X-1567938Y-0946410D01*
X-1569039Y-0945309D01*
X-1570140D01*
X-1571242Y-0944207D01*
X-1572343Y-0943106D01*
X-1573444Y-0942005D01*
Y-0940904D01*
X-1574545Y-0939802D01*
X-1575647Y-0938701D01*
X-1576748Y-0937600D01*
Y-0936499D01*
X-1577849Y-0935397D01*
X-1578950Y-0934296D01*
Y-0933195D01*
X-1580052Y-0932093D01*
Y-0930992D01*
X-1581153Y-0929891D01*
Y-0928790D01*
Y-0927688D01*
X-1582254Y-0926587D01*
Y-0925486D01*
X-1583355Y-0924385D01*
Y-0923283D01*
Y-0922182D01*
Y-0921081D01*
X-1584457Y-0919980D01*
Y-0918878D01*
Y-0917777D01*
Y-0916676D01*
Y-0915575D01*
Y-0914473D01*
Y-0913372D01*
X-1585558Y-0912271D01*
Y-0911170D01*
Y-0910068D01*
Y-0908967D01*
Y-0907866D01*
Y-0906764D01*
Y-0905663D01*
Y-0904562D01*
Y-0903461D01*
Y-0902359D01*
Y-0901258D01*
Y-0900157D01*
X-1584457Y-0899056D01*
Y-0897954D01*
Y-0896853D01*
Y-0895752D01*
Y-0894651D01*
Y-0893549D01*
X-1583355Y-0892448D01*
Y-0891347D01*
Y-0890246D01*
Y-0889144D01*
X-1582254Y-0888043D01*
Y-0886942D01*
Y-0885841D01*
X-1581153Y-0884739D01*
Y-0883638D01*
X-1580052Y-0882537D01*
Y-0881435D01*
Y-0880334D01*
X-1578950Y-0879233D01*
X-1577849Y-0878132D01*
Y-0877030D01*
X-1576748Y-0875929D01*
X-1575647Y-0874828D01*
Y-0873727D01*
X-1574545Y-0872625D01*
X-1573444Y-0871524D01*
X-1572343Y-0870423D01*
X-1571242Y-0869322D01*
X-1570140Y-0868220D01*
X-1569039Y-0867119D01*
X-1567938Y-0866018D01*
X-1566837Y-0864917D01*
X-1565735Y-0863815D01*
X-1564634D01*
X-1563533Y-0862714D01*
X-1562431D01*
X-1561330Y-0861613D01*
X-1560229Y-0860512D01*
X-1559128D01*
X-1558026Y-0859410D01*
X-1556925D01*
X-1555824Y-0858309D01*
X-1554723D01*
X-1553621D01*
X-1552520Y-0857208D01*
X-1551419D01*
X-1550318D01*
X-1549216Y-0856106D01*
X-1548115D01*
X-1547014D01*
X-1545913Y-0855005D01*
X-1544811D01*
X-1543710D01*
X-1542609D01*
X-1541508Y-0853904D01*
X-1540406D01*
X-1539305D01*
X-1538204D01*
X-1537102D01*
X-1536001D01*
X-1534900Y-0852803D01*
X-1533799D01*
X-1532697D01*
X-1531596D01*
X-1530495D01*
X-1529394D01*
X-1528292D01*
X-1527191D01*
X-1526090D01*
X-1524989D01*
X-1523887D01*
X-1522786D01*
X-1521685D01*
X-1520584D01*
X-1519482D01*
X-1518381D01*
X-1517280D01*
X-1516179D01*
X-1515077D01*
X-1513976D01*
X-1512875D01*
G37*
G36*
X-1428078Y-0993764D02*
Y-0994865D01*
Y-0995967D01*
Y-0997068D01*
Y-0998169D01*
Y-0999270D01*
Y-1000372D01*
Y-1001473D01*
Y-1002574D01*
Y-1003675D01*
Y-1004777D01*
Y-1005878D01*
Y-1006979D01*
Y-1008081D01*
Y-1009182D01*
Y-1010283D01*
Y-1011384D01*
X-1429179D01*
X-1430280D01*
X-1431381D01*
X-1432483D01*
X-1433584D01*
X-1434685D01*
X-1435786D01*
X-1436888D01*
X-1437989D01*
X-1439090D01*
X-1440192D01*
X-1441293D01*
X-1442394D01*
X-1443495D01*
X-1444597D01*
X-1445698D01*
X-1446799D01*
X-1447900D01*
X-1449002D01*
X-1450103D01*
X-1451204D01*
X-1452305D01*
X-1453407D01*
X-1454508D01*
X-1455609D01*
X-1456710D01*
X-1457812D01*
X-1458913D01*
X-1460014D01*
X-1461115D01*
X-1462217D01*
X-1463318D01*
X-1464419D01*
X-1465521D01*
X-1466622D01*
X-1467723D01*
X-1468824D01*
X-1469926D01*
X-1471027D01*
X-1472128D01*
X-1473229D01*
X-1474331D01*
X-1475432D01*
X-1476533D01*
X-1477634D01*
X-1478736D01*
X-1479837D01*
X-1480938D01*
X-1482039D01*
X-1483141Y-1012486D01*
Y-1013587D01*
X-1482039Y-1014688D01*
X-1480938D01*
X-1479837Y-1015789D01*
X-1478736Y-1016891D01*
X-1477634Y-1017992D01*
X-1476533D01*
X-1475432Y-1019093D01*
X-1474331Y-1020194D01*
X-1473229Y-1021296D01*
X-1472128Y-1022397D01*
Y-1023498D01*
X-1471027Y-1024599D01*
X-1469926Y-1025701D01*
Y-1026802D01*
X-1468824Y-1027903D01*
X-1467723Y-1029004D01*
Y-1030106D01*
X-1466622Y-1031207D01*
Y-1032308D01*
X-1465521Y-1033410D01*
Y-1034511D01*
X-1464419Y-1035612D01*
Y-1036713D01*
Y-1037815D01*
Y-1038916D01*
X-1463318Y-1040017D01*
Y-1041118D01*
Y-1042220D01*
Y-1043321D01*
Y-1044422D01*
X-1462217Y-1045523D01*
Y-1046625D01*
Y-1047726D01*
Y-1048827D01*
Y-1049928D01*
Y-1051030D01*
Y-1052131D01*
Y-1053232D01*
Y-1054333D01*
Y-1055435D01*
Y-1056536D01*
Y-1057637D01*
X-1463318Y-1058739D01*
Y-1059840D01*
Y-1060941D01*
Y-1062042D01*
Y-1063144D01*
X-1464419Y-1064245D01*
Y-1065346D01*
Y-1066447D01*
X-1465521Y-1067549D01*
Y-1068650D01*
Y-1069751D01*
X-1466622Y-1070852D01*
Y-1071954D01*
X-1467723Y-1073055D01*
X-1468824Y-1074156D01*
Y-1075257D01*
X-1469926Y-1076359D01*
X-1471027Y-1077460D01*
X-1472128Y-1078561D01*
X-1473229Y-1079662D01*
X-1474331Y-1080764D01*
X-1475432Y-1081865D01*
X-1476533Y-1082966D01*
X-1477634D01*
X-1478736Y-1084068D01*
X-1479837Y-1085169D01*
X-1480938D01*
X-1482039Y-1086270D01*
X-1483141D01*
X-1484242Y-1087371D01*
X-1485343D01*
X-1486444D01*
X-1487546Y-1088473D01*
X-1488647D01*
X-1489748D01*
X-1490850Y-1089574D01*
X-1491951D01*
X-1493052D01*
X-1494153D01*
X-1495255Y-1090675D01*
X-1496356D01*
X-1497457D01*
X-1498558D01*
X-1499660D01*
X-1500761D01*
X-1501862D01*
X-1502963D01*
X-1504065Y-1091776D01*
X-1505166D01*
X-1506267D01*
X-1507368D01*
X-1508470D01*
X-1509571D01*
X-1510672D01*
X-1511773D01*
X-1512875D01*
X-1513976D01*
X-1515077D01*
X-1516179D01*
X-1517280D01*
X-1518381D01*
X-1519482D01*
X-1520584D01*
X-1521685D01*
X-1522786D01*
X-1523887D01*
X-1524989D01*
X-1526090D01*
X-1527191D01*
X-1528292D01*
X-1529394D01*
X-1530495D01*
X-1531596D01*
X-1532697D01*
X-1533799D01*
X-1534900D01*
X-1536001D01*
X-1537102D01*
X-1538204D01*
X-1539305D01*
X-1540406D01*
X-1541508D01*
X-1542609D01*
X-1543710D01*
X-1544811D01*
X-1545913D01*
X-1547014D01*
X-1548115D01*
X-1549216D01*
X-1550318D01*
X-1551419D01*
X-1552520D01*
X-1553621D01*
X-1554723D01*
X-1555824D01*
X-1556925D01*
X-1558026D01*
X-1559128D01*
X-1560229D01*
X-1561330D01*
X-1562431D01*
X-1563533D01*
X-1564634D01*
X-1565735D01*
X-1566837D01*
X-1567938D01*
X-1569039D01*
X-1570140D01*
X-1571242D01*
X-1572343D01*
X-1573444D01*
X-1574545D01*
X-1575647D01*
X-1576748D01*
X-1577849D01*
X-1578950D01*
X-1580052D01*
X-1581153D01*
X-1582254D01*
Y-1090675D01*
Y-1089574D01*
Y-1088473D01*
Y-1087371D01*
Y-1086270D01*
Y-1085169D01*
Y-1084068D01*
Y-1082966D01*
Y-1081865D01*
Y-1080764D01*
Y-1079662D01*
Y-1078561D01*
Y-1077460D01*
Y-1076359D01*
Y-1075257D01*
Y-1074156D01*
X-1581153D01*
X-1580052D01*
X-1578950D01*
X-1577849D01*
X-1576748D01*
X-1575647D01*
X-1574545D01*
X-1573444D01*
X-1572343D01*
X-1571242D01*
X-1570140D01*
X-1569039D01*
X-1567938D01*
X-1566837D01*
X-1565735D01*
X-1564634D01*
X-1563533D01*
X-1562431D01*
X-1561330D01*
X-1560229D01*
X-1559128D01*
X-1558026D01*
X-1556925D01*
X-1555824D01*
X-1554723D01*
X-1553621D01*
X-1552520D01*
X-1551419D01*
X-1550318D01*
X-1549216D01*
X-1548115D01*
X-1547014D01*
X-1545913D01*
X-1544811D01*
X-1543710D01*
X-1542609D01*
X-1541508D01*
X-1540406D01*
X-1539305D01*
X-1538204D01*
X-1537102D01*
X-1536001D01*
X-1534900D01*
X-1533799D01*
X-1532697D01*
X-1531596D01*
X-1530495D01*
X-1529394D01*
X-1528292D01*
X-1527191D01*
X-1526090D01*
X-1524989D01*
X-1523887D01*
X-1522786D01*
X-1521685D01*
X-1520584D01*
X-1519482D01*
X-1518381D01*
X-1517280D01*
X-1516179D01*
X-1515077D01*
X-1513976D01*
X-1512875D01*
X-1511773D01*
X-1510672D01*
X-1509571D01*
X-1508470D01*
X-1507368D01*
X-1506267D01*
X-1505166D01*
X-1504065D01*
X-1502963D01*
X-1501862Y-1073055D01*
X-1500761D01*
X-1499660D01*
X-1498558D01*
X-1497457D01*
X-1496356Y-1071954D01*
X-1495255D01*
X-1494153D01*
X-1493052Y-1070852D01*
X-1491951D01*
X-1490850D01*
X-1489748Y-1069751D01*
X-1488647Y-1068650D01*
X-1487546D01*
X-1486444Y-1067549D01*
X-1485343Y-1066447D01*
X-1484242Y-1065346D01*
X-1483141Y-1064245D01*
X-1482039Y-1063144D01*
X-1480938Y-1062042D01*
Y-1060941D01*
X-1479837Y-1059840D01*
Y-1058739D01*
X-1478736Y-1057637D01*
Y-1056536D01*
Y-1055435D01*
X-1477634Y-1054333D01*
Y-1053232D01*
Y-1052131D01*
Y-1051030D01*
Y-1049928D01*
Y-1048827D01*
Y-1047726D01*
Y-1046625D01*
Y-1045523D01*
Y-1044422D01*
Y-1043321D01*
Y-1042220D01*
Y-1041118D01*
Y-1040017D01*
Y-1038916D01*
Y-1037815D01*
X-1478736Y-1036713D01*
Y-1035612D01*
Y-1034511D01*
X-1479837Y-1033410D01*
Y-1032308D01*
Y-1031207D01*
X-1480938Y-1030106D01*
Y-1029004D01*
X-1482039Y-1027903D01*
Y-1026802D01*
X-1483141Y-1025701D01*
X-1484242Y-1024599D01*
X-1485343Y-1023498D01*
X-1486444Y-1022397D01*
X-1487546Y-1021296D01*
X-1488647Y-1020194D01*
X-1489748Y-1019093D01*
X-1490850Y-1017992D01*
X-1491951D01*
X-1493052Y-1016891D01*
X-1494153Y-1015789D01*
X-1495255D01*
X-1496356Y-1014688D01*
X-1497457D01*
X-1498558D01*
X-1499660Y-1013587D01*
X-1500761D01*
X-1501862D01*
X-1502963Y-1012486D01*
X-1504065D01*
X-1505166D01*
X-1506267D01*
X-1507368D01*
X-1508470Y-1011384D01*
X-1509571D01*
X-1510672D01*
X-1511773D01*
X-1512875D01*
X-1513976D01*
X-1515077D01*
X-1516179D01*
X-1517280D01*
X-1518381D01*
X-1519482D01*
X-1520584D01*
X-1521685D01*
X-1522786D01*
X-1523887D01*
X-1524989D01*
X-1526090D01*
X-1527191D01*
X-1528292D01*
X-1529394D01*
X-1530495D01*
X-1531596D01*
X-1532697D01*
X-1533799D01*
X-1534900D01*
X-1536001D01*
X-1537102D01*
X-1538204D01*
X-1539305D01*
X-1540406D01*
X-1541508D01*
X-1542609D01*
X-1543710D01*
X-1544811D01*
X-1545913D01*
X-1547014D01*
X-1548115D01*
X-1549216D01*
X-1550318D01*
X-1551419D01*
X-1552520D01*
X-1553621D01*
X-1554723D01*
X-1555824D01*
X-1556925D01*
X-1558026D01*
X-1559128D01*
X-1560229D01*
X-1561330D01*
X-1562431D01*
X-1563533D01*
X-1564634D01*
X-1565735D01*
X-1566837D01*
X-1567938D01*
X-1569039D01*
X-1570140D01*
X-1571242D01*
X-1572343D01*
X-1573444D01*
X-1574545D01*
X-1575647D01*
X-1576748D01*
X-1577849D01*
X-1578950D01*
X-1580052D01*
X-1581153D01*
X-1582254D01*
Y-1010283D01*
Y-1009182D01*
Y-1008081D01*
Y-1006979D01*
Y-1005878D01*
Y-1004777D01*
Y-1003675D01*
Y-1002574D01*
Y-1001473D01*
Y-1000372D01*
Y-0999270D01*
Y-0998169D01*
Y-0997068D01*
Y-0995967D01*
Y-0994865D01*
Y-0993764D01*
X-1581153D01*
X-1580052D01*
X-1578950D01*
X-1577849D01*
X-1576748D01*
X-1575647D01*
X-1574545D01*
X-1573444D01*
X-1572343D01*
X-1571242D01*
X-1570140D01*
X-1569039D01*
X-1567938D01*
X-1566837D01*
X-1565735D01*
X-1564634D01*
X-1563533D01*
X-1562431D01*
X-1561330D01*
X-1560229D01*
X-1559128D01*
X-1558026D01*
X-1556925D01*
X-1555824D01*
X-1554723D01*
X-1553621D01*
X-1552520D01*
X-1551419D01*
X-1550318D01*
X-1549216D01*
X-1548115D01*
X-1547014D01*
X-1545913D01*
X-1544811D01*
X-1543710D01*
X-1542609D01*
X-1541508D01*
X-1540406D01*
X-1539305D01*
X-1538204D01*
X-1537102D01*
X-1536001D01*
X-1534900D01*
X-1533799D01*
X-1532697D01*
X-1531596D01*
X-1530495D01*
X-1529394D01*
X-1528292D01*
X-1527191D01*
X-1526090D01*
X-1524989D01*
X-1523887D01*
X-1522786D01*
X-1521685D01*
X-1520584D01*
X-1519482D01*
X-1518381D01*
X-1517280D01*
X-1516179D01*
X-1515077D01*
X-1513976D01*
X-1512875D01*
X-1511773D01*
X-1510672D01*
X-1509571D01*
X-1508470D01*
X-1507368D01*
X-1506267D01*
X-1505166D01*
X-1504065D01*
X-1502963D01*
X-1501862D01*
X-1500761D01*
X-1499660D01*
X-1498558D01*
X-1497457D01*
X-1496356D01*
X-1495255D01*
X-1494153D01*
X-1493052D01*
X-1491951D01*
X-1490850D01*
X-1489748D01*
X-1488647D01*
X-1487546D01*
X-1486444D01*
X-1485343D01*
X-1484242D01*
X-1483141D01*
X-1482039D01*
X-1480938D01*
X-1479837D01*
X-1478736D01*
X-1477634D01*
X-1476533D01*
X-1475432D01*
X-1474331D01*
X-1473229D01*
X-1472128D01*
X-1471027D01*
X-1469926D01*
X-1468824D01*
X-1467723D01*
X-1466622D01*
X-1465521D01*
X-1464419D01*
X-1463318D01*
X-1462217D01*
X-1461115D01*
X-1460014D01*
X-1458913D01*
X-1457812D01*
X-1456710D01*
X-1455609D01*
X-1454508D01*
X-1453407D01*
X-1452305D01*
X-1451204D01*
X-1450103D01*
X-1449002D01*
X-1447900D01*
X-1446799D01*
X-1445698D01*
X-1444597D01*
X-1443495D01*
X-1442394D01*
X-1441293D01*
X-1440192D01*
X-1439090D01*
X-1437989D01*
X-1436888D01*
X-1435786D01*
X-1434685D01*
X-1433584D01*
X-1432483D01*
X-1431381D01*
X-1430280D01*
X-1429179D01*
X-1428078D01*
G37*
G36*
X-1465521Y-1131422D02*
Y-1132523D01*
Y-1133624D01*
Y-1134726D01*
Y-1135827D01*
Y-1136928D01*
Y-1138029D01*
Y-1139131D01*
Y-1140232D01*
Y-1141333D01*
Y-1142434D01*
Y-1143536D01*
Y-1144637D01*
Y-1145738D01*
Y-1146839D01*
Y-1147941D01*
Y-1149042D01*
X-1466622D01*
X-1467723D01*
X-1468824D01*
X-1469926D01*
X-1471027D01*
X-1472128D01*
X-1473229D01*
X-1474331D01*
X-1475432D01*
X-1476533D01*
X-1477634D01*
X-1478736D01*
X-1479837D01*
X-1480938D01*
X-1482039D01*
X-1483141Y-1150143D01*
Y-1151244D01*
X-1482039Y-1152346D01*
X-1480938Y-1153447D01*
X-1479837D01*
X-1478736Y-1154548D01*
X-1477634Y-1155649D01*
X-1476533Y-1156751D01*
X-1475432Y-1157852D01*
X-1474331Y-1158953D01*
X-1473229D01*
X-1472128Y-1160055D01*
Y-1161156D01*
X-1471027Y-1162257D01*
X-1469926Y-1163358D01*
X-1468824Y-1164460D01*
Y-1165561D01*
X-1467723Y-1166662D01*
Y-1167763D01*
X-1466622Y-1168865D01*
Y-1169966D01*
X-1465521Y-1171067D01*
Y-1172168D01*
X-1464419Y-1173270D01*
Y-1174371D01*
Y-1175472D01*
Y-1176573D01*
X-1463318Y-1177675D01*
Y-1178776D01*
Y-1179877D01*
Y-1180978D01*
Y-1182080D01*
X-1462217Y-1183181D01*
Y-1184282D01*
Y-1185384D01*
Y-1186485D01*
Y-1187586D01*
Y-1188687D01*
Y-1189789D01*
Y-1190890D01*
Y-1191991D01*
Y-1193092D01*
Y-1194194D01*
X-1463318Y-1195295D01*
Y-1196396D01*
Y-1197497D01*
Y-1198599D01*
Y-1199700D01*
X-1464419Y-1200801D01*
Y-1201902D01*
Y-1203004D01*
X-1465521Y-1204105D01*
Y-1205206D01*
X-1466622Y-1206307D01*
Y-1207409D01*
X-1467723Y-1208510D01*
Y-1209611D01*
X-1468824Y-1210713D01*
X-1469926Y-1211814D01*
X-1471027Y-1212915D01*
X-1472128Y-1214016D01*
X-1473229Y-1215118D01*
X-1474331Y-1216219D01*
X-1475432Y-1217320D01*
X-1476533Y-1218421D01*
X-1477634D01*
X-1478736Y-1219523D01*
X-1479837D01*
X-1480938Y-1220624D01*
X-1482039Y-1221725D01*
X-1483141D01*
X-1484242D01*
X-1485343Y-1222826D01*
X-1486444D01*
X-1487546Y-1223928D01*
Y-1225029D01*
X-1486444Y-1226130D01*
X-1485343Y-1227231D01*
X-1484242D01*
X-1483141Y-1228333D01*
X-1482039D01*
X-1480938Y-1229434D01*
X-1479837Y-1230535D01*
X-1478736Y-1231636D01*
X-1477634Y-1232738D01*
X-1476533D01*
X-1475432Y-1233839D01*
X-1474331Y-1234940D01*
X-1473229Y-1236042D01*
X-1472128Y-1237143D01*
Y-1238244D01*
X-1471027Y-1239345D01*
X-1469926Y-1240447D01*
X-1468824Y-1241548D01*
Y-1242649D01*
X-1467723Y-1243750D01*
Y-1244852D01*
X-1466622Y-1245953D01*
Y-1247054D01*
X-1465521Y-1248155D01*
Y-1249257D01*
Y-1250358D01*
X-1464419Y-1251459D01*
Y-1252560D01*
X-1463318Y-1253662D01*
Y-1254763D01*
Y-1255864D01*
Y-1256965D01*
Y-1258067D01*
X-1462217Y-1259168D01*
Y-1260269D01*
Y-1261371D01*
Y-1262472D01*
Y-1263573D01*
Y-1264674D01*
Y-1265776D01*
Y-1266877D01*
Y-1267978D01*
Y-1269079D01*
Y-1270181D01*
Y-1271282D01*
Y-1272383D01*
X-1463318Y-1273484D01*
Y-1274586D01*
Y-1275687D01*
Y-1276788D01*
X-1464419Y-1277889D01*
Y-1278991D01*
Y-1280092D01*
X-1465521Y-1281193D01*
Y-1282294D01*
X-1466622Y-1283396D01*
Y-1284497D01*
X-1467723Y-1285598D01*
Y-1286700D01*
X-1468824Y-1287801D01*
X-1469926Y-1288902D01*
X-1471027Y-1290003D01*
X-1472128Y-1291105D01*
X-1473229Y-1292206D01*
X-1474331Y-1293307D01*
X-1475432Y-1294408D01*
X-1476533Y-1295510D01*
X-1477634D01*
X-1478736Y-1296611D01*
X-1479837D01*
X-1480938Y-1297712D01*
X-1482039D01*
X-1483141Y-1298813D01*
X-1484242D01*
X-1485343Y-1299915D01*
X-1486444D01*
X-1487546Y-1301016D01*
X-1488647D01*
X-1489748D01*
X-1490850D01*
X-1491951Y-1302117D01*
X-1493052D01*
X-1494153D01*
X-1495255D01*
X-1496356D01*
X-1497457Y-1303218D01*
X-1498558D01*
X-1499660D01*
X-1500761D01*
X-1501862D01*
X-1502963D01*
X-1504065D01*
X-1505166D01*
X-1506267D01*
X-1507368D01*
X-1508470Y-1304320D01*
X-1509571D01*
X-1510672D01*
X-1511773D01*
X-1512875D01*
X-1513976D01*
X-1515077D01*
X-1516179D01*
X-1517280D01*
X-1518381D01*
X-1519482D01*
X-1520584D01*
X-1521685D01*
X-1522786D01*
X-1523887D01*
X-1524989D01*
X-1526090D01*
X-1527191D01*
X-1528292D01*
X-1529394D01*
X-1530495D01*
X-1531596D01*
X-1532697D01*
X-1533799D01*
X-1534900D01*
X-1536001D01*
X-1537102D01*
X-1538204D01*
X-1539305D01*
X-1540406D01*
X-1541508D01*
X-1542609D01*
X-1543710D01*
X-1544811D01*
X-1545913D01*
X-1547014D01*
X-1548115D01*
X-1549216D01*
X-1550318D01*
X-1551419D01*
X-1552520D01*
X-1553621D01*
X-1554723D01*
X-1555824D01*
X-1556925D01*
X-1558026D01*
X-1559128D01*
X-1560229D01*
X-1561330D01*
X-1562431D01*
X-1563533D01*
X-1564634D01*
X-1565735D01*
X-1566837D01*
X-1567938D01*
X-1569039D01*
X-1570140D01*
X-1571242D01*
X-1572343D01*
X-1573444D01*
X-1574545D01*
X-1575647D01*
X-1576748D01*
X-1577849D01*
X-1578950D01*
X-1580052D01*
X-1581153D01*
X-1582254D01*
Y-1303218D01*
Y-1302117D01*
Y-1301016D01*
Y-1299915D01*
Y-1298813D01*
Y-1297712D01*
Y-1296611D01*
Y-1295510D01*
Y-1294408D01*
Y-1293307D01*
Y-1292206D01*
Y-1291105D01*
Y-1290003D01*
Y-1288902D01*
Y-1287801D01*
Y-1286700D01*
X-1581153D01*
X-1580052D01*
X-1578950D01*
X-1577849D01*
X-1576748D01*
X-1575647D01*
X-1574545D01*
X-1573444D01*
X-1572343D01*
X-1571242D01*
X-1570140D01*
X-1569039D01*
X-1567938D01*
X-1566837D01*
X-1565735D01*
X-1564634D01*
X-1563533D01*
X-1562431D01*
X-1561330D01*
X-1560229D01*
X-1559128D01*
X-1558026D01*
X-1556925D01*
X-1555824D01*
X-1554723D01*
X-1553621D01*
X-1552520D01*
X-1551419D01*
X-1550318D01*
X-1549216D01*
X-1548115D01*
X-1547014D01*
X-1545913D01*
X-1544811D01*
X-1543710D01*
X-1542609D01*
X-1541508D01*
X-1540406D01*
X-1539305D01*
X-1538204D01*
X-1537102D01*
X-1536001D01*
X-1534900D01*
X-1533799D01*
X-1532697D01*
X-1531596D01*
X-1530495D01*
X-1529394D01*
X-1528292D01*
X-1527191D01*
X-1526090D01*
X-1524989D01*
X-1523887D01*
X-1522786D01*
X-1521685D01*
X-1520584D01*
X-1519482D01*
X-1518381D01*
X-1517280D01*
X-1516179D01*
X-1515077D01*
X-1513976D01*
X-1512875D01*
X-1511773D01*
X-1510672D01*
X-1509571D01*
X-1508470D01*
X-1507368Y-1285598D01*
X-1506267D01*
X-1505166D01*
X-1504065D01*
X-1502963D01*
X-1501862D01*
X-1500761D01*
X-1499660D01*
X-1498558D01*
X-1497457Y-1284497D01*
X-1496356D01*
X-1495255D01*
X-1494153D01*
X-1493052Y-1283396D01*
X-1491951D01*
X-1490850D01*
X-1489748Y-1282294D01*
X-1488647D01*
X-1487546Y-1281193D01*
X-1486444Y-1280092D01*
X-1485343D01*
X-1484242Y-1278991D01*
X-1483141Y-1277889D01*
X-1482039Y-1276788D01*
X-1480938Y-1275687D01*
Y-1274586D01*
X-1479837Y-1273484D01*
Y-1272383D01*
X-1478736Y-1271282D01*
Y-1270181D01*
Y-1269079D01*
X-1477634Y-1267978D01*
Y-1266877D01*
Y-1265776D01*
Y-1264674D01*
Y-1263573D01*
Y-1262472D01*
Y-1261371D01*
Y-1260269D01*
Y-1259168D01*
Y-1258067D01*
Y-1256965D01*
Y-1255864D01*
Y-1254763D01*
Y-1253662D01*
Y-1252560D01*
X-1478736Y-1251459D01*
Y-1250358D01*
Y-1249257D01*
Y-1248155D01*
X-1479837Y-1247054D01*
Y-1245953D01*
X-1480938Y-1244852D01*
Y-1243750D01*
X-1482039Y-1242649D01*
X-1483141Y-1241548D01*
Y-1240447D01*
X-1484242Y-1239345D01*
X-1485343Y-1238244D01*
X-1486444Y-1237143D01*
X-1487546Y-1236042D01*
X-1488647Y-1234940D01*
X-1489748Y-1233839D01*
X-1490850D01*
X-1491951Y-1232738D01*
X-1493052Y-1231636D01*
X-1494153D01*
X-1495255Y-1230535D01*
X-1496356D01*
X-1497457Y-1229434D01*
X-1498558D01*
X-1499660D01*
X-1500761Y-1228333D01*
X-1501862D01*
X-1502963D01*
X-1504065D01*
X-1505166Y-1227231D01*
X-1506267D01*
X-1507368D01*
X-1508470D01*
X-1509571D01*
X-1510672D01*
X-1511773D01*
X-1512875D01*
X-1513976D01*
X-1515077D01*
X-1516179D01*
X-1517280D01*
X-1518381D01*
X-1519482D01*
X-1520584D01*
X-1521685D01*
X-1522786D01*
X-1523887D01*
X-1524989D01*
X-1526090D01*
X-1527191D01*
X-1528292D01*
X-1529394D01*
X-1530495D01*
X-1531596D01*
X-1532697D01*
X-1533799D01*
X-1534900D01*
X-1536001D01*
X-1537102D01*
X-1538204D01*
X-1539305D01*
X-1540406D01*
X-1541508D01*
X-1542609D01*
X-1543710D01*
X-1544811D01*
X-1545913D01*
X-1547014D01*
X-1548115D01*
X-1549216D01*
X-1550318D01*
X-1551419D01*
X-1552520D01*
X-1553621D01*
X-1554723D01*
X-1555824D01*
X-1556925D01*
X-1558026D01*
X-1559128D01*
X-1560229D01*
X-1561330D01*
X-1562431D01*
X-1563533D01*
X-1564634D01*
X-1565735D01*
X-1566837D01*
X-1567938D01*
X-1569039D01*
X-1570140D01*
X-1571242D01*
X-1572343D01*
X-1573444D01*
X-1574545D01*
X-1575647D01*
X-1576748D01*
X-1577849D01*
X-1578950D01*
X-1580052D01*
X-1581153D01*
X-1582254D01*
Y-1226130D01*
Y-1225029D01*
Y-1223928D01*
Y-1222826D01*
Y-1221725D01*
Y-1220624D01*
Y-1219523D01*
Y-1218421D01*
Y-1217320D01*
Y-1216219D01*
Y-1215118D01*
Y-1214016D01*
Y-1212915D01*
Y-1211814D01*
Y-1210713D01*
Y-1209611D01*
X-1581153D01*
X-1580052D01*
X-1578950D01*
X-1577849D01*
X-1576748D01*
X-1575647D01*
X-1574545D01*
X-1573444D01*
X-1572343D01*
X-1571242D01*
X-1570140D01*
X-1569039D01*
X-1567938D01*
X-1566837D01*
X-1565735D01*
X-1564634D01*
X-1563533D01*
X-1562431D01*
X-1561330D01*
X-1560229D01*
X-1559128D01*
X-1558026D01*
X-1556925D01*
X-1555824D01*
X-1554723D01*
X-1553621D01*
X-1552520D01*
X-1551419D01*
X-1550318D01*
X-1549216D01*
X-1548115D01*
X-1547014D01*
X-1545913D01*
X-1544811D01*
X-1543710D01*
X-1542609D01*
X-1541508D01*
X-1540406D01*
X-1539305D01*
X-1538204D01*
X-1537102D01*
X-1536001D01*
X-1534900D01*
X-1533799D01*
X-1532697D01*
X-1531596D01*
X-1530495D01*
X-1529394D01*
X-1528292D01*
X-1527191D01*
X-1526090D01*
X-1524989D01*
X-1523887D01*
X-1522786D01*
X-1521685D01*
X-1520584D01*
X-1519482D01*
X-1518381D01*
X-1517280D01*
X-1516179D01*
X-1515077D01*
X-1513976D01*
X-1512875D01*
X-1511773D01*
X-1510672D01*
X-1509571D01*
X-1508470D01*
X-1507368Y-1208510D01*
X-1506267D01*
X-1505166D01*
X-1504065D01*
X-1502963D01*
X-1501862D01*
X-1500761D01*
X-1499660D01*
X-1498558D01*
X-1497457Y-1207409D01*
X-1496356D01*
X-1495255D01*
X-1494153D01*
X-1493052Y-1206307D01*
X-1491951D01*
X-1490850D01*
X-1489748Y-1205206D01*
X-1488647D01*
X-1487546Y-1204105D01*
X-1486444Y-1203004D01*
X-1485343D01*
X-1484242Y-1201902D01*
X-1483141Y-1200801D01*
X-1482039Y-1199700D01*
Y-1198599D01*
X-1480938Y-1197497D01*
X-1479837Y-1196396D01*
Y-1195295D01*
X-1478736Y-1194194D01*
Y-1193092D01*
Y-1191991D01*
X-1477634Y-1190890D01*
Y-1189789D01*
Y-1188687D01*
Y-1187586D01*
Y-1186485D01*
Y-1185384D01*
Y-1184282D01*
Y-1183181D01*
Y-1182080D01*
Y-1180978D01*
Y-1179877D01*
Y-1178776D01*
Y-1177675D01*
Y-1176573D01*
Y-1175472D01*
X-1478736Y-1174371D01*
Y-1173270D01*
Y-1172168D01*
Y-1171067D01*
X-1479837Y-1169966D01*
Y-1168865D01*
X-1480938Y-1167763D01*
Y-1166662D01*
X-1482039Y-1165561D01*
Y-1164460D01*
X-1483141Y-1163358D01*
X-1484242Y-1162257D01*
X-1485343Y-1161156D01*
X-1486444Y-1160055D01*
X-1487546Y-1158953D01*
X-1488647Y-1157852D01*
X-1489748Y-1156751D01*
X-1490850Y-1155649D01*
X-1491951D01*
X-1493052Y-1154548D01*
X-1494153D01*
X-1495255Y-1153447D01*
X-1496356D01*
X-1497457Y-1152346D01*
X-1498558D01*
X-1499660D01*
X-1500761Y-1151244D01*
X-1501862D01*
X-1502963D01*
X-1504065Y-1150143D01*
X-1505166D01*
X-1506267D01*
X-1507368D01*
X-1508470D01*
X-1509571D01*
X-1510672D01*
X-1511773D01*
X-1512875Y-1149042D01*
X-1513976D01*
X-1515077D01*
X-1516179D01*
X-1517280D01*
X-1518381D01*
X-1519482D01*
X-1520584D01*
X-1521685D01*
X-1522786D01*
X-1523887D01*
X-1524989D01*
X-1526090D01*
X-1527191D01*
X-1528292D01*
X-1529394D01*
X-1530495D01*
X-1531596D01*
X-1532697D01*
X-1533799D01*
X-1534900D01*
X-1536001D01*
X-1537102D01*
X-1538204D01*
X-1539305D01*
X-1540406D01*
X-1541508D01*
X-1542609D01*
X-1543710D01*
X-1544811D01*
X-1545913D01*
X-1547014D01*
X-1548115D01*
X-1549216D01*
X-1550318D01*
X-1551419D01*
X-1552520D01*
X-1553621D01*
X-1554723D01*
X-1555824D01*
X-1556925D01*
X-1558026D01*
X-1559128D01*
X-1560229D01*
X-1561330D01*
X-1562431D01*
X-1563533D01*
X-1564634D01*
X-1565735D01*
X-1566837D01*
X-1567938D01*
X-1569039D01*
X-1570140D01*
X-1571242D01*
X-1572343D01*
X-1573444D01*
X-1574545D01*
X-1575647D01*
X-1576748D01*
X-1577849D01*
X-1578950D01*
X-1580052D01*
X-1581153D01*
X-1582254D01*
Y-1147941D01*
Y-1146839D01*
Y-1145738D01*
Y-1144637D01*
Y-1143536D01*
Y-1142434D01*
Y-1141333D01*
Y-1140232D01*
Y-1139131D01*
Y-1138029D01*
Y-1136928D01*
Y-1135827D01*
Y-1134726D01*
Y-1133624D01*
Y-1132523D01*
Y-1131422D01*
X-1581153D01*
X-1580052D01*
X-1578950D01*
X-1577849D01*
X-1576748D01*
X-1575647D01*
X-1574545D01*
X-1573444D01*
X-1572343D01*
X-1571242D01*
X-1570140D01*
X-1569039D01*
X-1567938D01*
X-1566837D01*
X-1565735D01*
X-1564634D01*
X-1563533D01*
X-1562431D01*
X-1561330D01*
X-1560229D01*
X-1559128D01*
X-1558026D01*
X-1556925D01*
X-1555824D01*
X-1554723D01*
X-1553621D01*
X-1552520D01*
X-1551419D01*
X-1550318D01*
X-1549216D01*
X-1548115D01*
X-1547014D01*
X-1545913D01*
X-1544811D01*
X-1543710D01*
X-1542609D01*
X-1541508D01*
X-1540406D01*
X-1539305D01*
X-1538204D01*
X-1537102D01*
X-1536001D01*
X-1534900D01*
X-1533799D01*
X-1532697D01*
X-1531596D01*
X-1530495D01*
X-1529394D01*
X-1528292D01*
X-1527191D01*
X-1526090D01*
X-1524989D01*
X-1523887D01*
X-1522786D01*
X-1521685D01*
X-1520584D01*
X-1519482D01*
X-1518381D01*
X-1517280D01*
X-1516179D01*
X-1515077D01*
X-1513976D01*
X-1512875D01*
X-1511773D01*
X-1510672D01*
X-1509571D01*
X-1508470D01*
X-1507368D01*
X-1506267D01*
X-1505166D01*
X-1504065D01*
X-1502963D01*
X-1501862D01*
X-1500761D01*
X-1499660D01*
X-1498558D01*
X-1497457D01*
X-1496356D01*
X-1495255D01*
X-1494153D01*
X-1493052D01*
X-1491951D01*
X-1490850D01*
X-1489748D01*
X-1488647D01*
X-1487546D01*
X-1486444D01*
X-1485343D01*
X-1484242D01*
X-1483141D01*
X-1482039D01*
X-1480938D01*
X-1479837D01*
X-1478736D01*
X-1477634D01*
X-1476533D01*
X-1475432D01*
X-1474331D01*
X-1473229D01*
X-1472128D01*
X-1471027D01*
X-1469926D01*
X-1468824D01*
X-1467723D01*
X-1466622D01*
X-1465521D01*
G37*
%LPC*%
G36*
X-1523887Y-0389172D02*
Y-0390273D01*
X-1522786D01*
X-1521685D01*
X-1520584D01*
Y-0391374D01*
X-1519482D01*
X-1518381D01*
X-1517280D01*
Y-0392476D01*
X-1516179D01*
X-1515077D01*
Y-0393577D01*
X-1513976D01*
X-1512875D01*
X-1511773D01*
Y-0394678D01*
X-1510672D01*
X-1509571D01*
X-1508470D01*
Y-0395779D01*
X-1507368D01*
X-1506267D01*
Y-0396881D01*
X-1505166D01*
X-1504065D01*
X-1502963D01*
Y-0397982D01*
X-1501862D01*
X-1500761D01*
X-1499660D01*
Y-0399083D01*
X-1498558D01*
X-1497457D01*
X-1496356D01*
Y-0400184D01*
X-1495255D01*
X-1494153D01*
Y-0401286D01*
X-1493052D01*
X-1491951D01*
X-1490850D01*
Y-0402387D01*
X-1489748D01*
X-1488647D01*
X-1487546D01*
Y-0403488D01*
X-1486444D01*
X-1485343D01*
Y-0404590D01*
X-1484242D01*
X-1483141D01*
X-1482039D01*
Y-0405691D01*
X-1480938D01*
X-1479837D01*
X-1478736D01*
Y-0406792D01*
X-1477634D01*
X-1476533D01*
X-1475432D01*
Y-0407893D01*
X-1474331D01*
X-1473229D01*
Y-0408995D01*
X-1472128D01*
X-1471027D01*
X-1469926D01*
Y-0410096D01*
X-1468824D01*
X-1467723D01*
X-1466622D01*
Y-0411197D01*
X-1465521D01*
X-1464419D01*
Y-0412298D01*
X-1463318D01*
X-1462217D01*
X-1461115D01*
Y-0413400D01*
X-1460014D01*
X-1458913D01*
X-1457812D01*
Y-0414501D01*
X-1456710D01*
X-1455609D01*
X-1454508D01*
Y-0415602D01*
X-1453407D01*
X-1452305D01*
Y-0416703D01*
X-1451204D01*
X-1450103D01*
X-1449002D01*
Y-0417805D01*
X-1447900D01*
X-1446799D01*
X-1445698D01*
Y-0418906D01*
X-1446799D01*
X-1447900D01*
X-1449002D01*
Y-0420007D01*
X-1450103D01*
X-1451204D01*
Y-0421108D01*
X-1452305D01*
X-1453407D01*
X-1454508D01*
Y-0422210D01*
X-1455609D01*
X-1456710D01*
X-1457812D01*
Y-0423311D01*
X-1458913D01*
X-1460014D01*
Y-0424412D01*
X-1461115D01*
X-1462217D01*
X-1463318D01*
Y-0425513D01*
X-1464419D01*
X-1465521D01*
X-1466622D01*
Y-0426615D01*
X-1467723D01*
X-1468824D01*
Y-0427716D01*
X-1469926D01*
X-1471027D01*
X-1472128D01*
Y-0428817D01*
X-1473229D01*
X-1474331D01*
X-1475432D01*
Y-0429919D01*
X-1476533D01*
X-1477634D01*
X-1478736D01*
Y-0431020D01*
X-1479837D01*
X-1480938D01*
Y-0432121D01*
X-1482039D01*
X-1483141D01*
X-1484242D01*
Y-0433222D01*
X-1485343D01*
X-1486444D01*
X-1487546D01*
Y-0434324D01*
X-1488647D01*
X-1489748D01*
Y-0435425D01*
X-1490850D01*
X-1491951D01*
X-1493052D01*
Y-0436526D01*
X-1494153D01*
X-1495255D01*
X-1496356D01*
Y-0437627D01*
X-1497457D01*
X-1498558D01*
X-1499660D01*
Y-0438729D01*
X-1500761D01*
X-1501862D01*
Y-0439830D01*
X-1502963D01*
X-1504065D01*
X-1505166D01*
Y-0440931D01*
X-1506267D01*
X-1507368D01*
X-1508470D01*
Y-0442032D01*
X-1509571D01*
X-1510672D01*
Y-0443134D01*
X-1511773D01*
X-1512875D01*
X-1513976D01*
Y-0444235D01*
X-1515077D01*
X-1516179D01*
X-1517280D01*
Y-0445336D01*
X-1518381D01*
X-1519482D01*
X-1520584D01*
Y-0446437D01*
X-1521685D01*
X-1522786D01*
Y-0447539D01*
X-1523887D01*
X-1524989D01*
Y-0446437D01*
Y-0445336D01*
Y-0444235D01*
Y-0443134D01*
Y-0442032D01*
Y-0440931D01*
Y-0439830D01*
Y-0438729D01*
Y-0437627D01*
Y-0436526D01*
Y-0435425D01*
Y-0434324D01*
Y-0433222D01*
Y-0432121D01*
Y-0431020D01*
Y-0429919D01*
Y-0428817D01*
Y-0427716D01*
Y-0426615D01*
Y-0425513D01*
Y-0424412D01*
Y-0423311D01*
Y-0422210D01*
Y-0421108D01*
Y-0420007D01*
Y-0418906D01*
Y-0417805D01*
Y-0416703D01*
Y-0415602D01*
Y-0414501D01*
Y-0413400D01*
Y-0412298D01*
Y-0411197D01*
Y-0410096D01*
Y-0408995D01*
Y-0407893D01*
Y-0406792D01*
Y-0405691D01*
Y-0404590D01*
Y-0403488D01*
Y-0402387D01*
Y-0401286D01*
Y-0400184D01*
Y-0399083D01*
Y-0397982D01*
Y-0396881D01*
Y-0395779D01*
Y-0394678D01*
Y-0393577D01*
Y-0392476D01*
Y-0391374D01*
Y-0390273D01*
Y-0389172D01*
X-1523887D01*
G37*
G36*
X-1486444Y-0737170D02*
Y-0738272D01*
X-1485343D01*
X-1484242D01*
X-1483141D01*
X-1482039D01*
X-1480938D01*
X-1479837D01*
X-1478736D01*
X-1477634D01*
X-1476533D01*
Y-0739373D01*
X-1475432D01*
X-1474331D01*
X-1473229D01*
X-1472128D01*
X-1471027D01*
Y-0740474D01*
X-1469926D01*
X-1468824D01*
X-1467723D01*
X-1466622D01*
Y-0741575D01*
X-1465521D01*
X-1464419D01*
X-1463318D01*
X-1462217D01*
Y-0742677D01*
X-1461115D01*
X-1460014D01*
Y-0743778D01*
X-1458913D01*
X-1457812D01*
X-1456710D01*
Y-0744879D01*
X-1455609D01*
X-1454508D01*
Y-0745980D01*
X-1453407D01*
Y-0747082D01*
X-1452305D01*
X-1451204D01*
Y-0748183D01*
X-1450103D01*
Y-0749284D01*
X-1449002D01*
X-1447900D01*
Y-0750385D01*
X-1446799D01*
Y-0751487D01*
X-1445698D01*
Y-0752588D01*
X-1444597D01*
Y-0753689D01*
X-1443495D01*
Y-0754790D01*
Y-0755892D01*
X-1442394D01*
Y-0756993D01*
X-1441293D01*
Y-0758094D01*
Y-0759196D01*
X-1440192D01*
Y-0760297D01*
Y-0761398D01*
Y-0762499D01*
X-1439090D01*
Y-0763601D01*
Y-0764702D01*
Y-0765803D01*
Y-0766904D01*
Y-0768006D01*
Y-0769107D01*
Y-0770208D01*
Y-0771309D01*
Y-0772411D01*
Y-0773512D01*
Y-0774613D01*
Y-0775714D01*
Y-0776816D01*
Y-0777917D01*
X-1440192D01*
Y-0779018D01*
Y-0780119D01*
Y-0781221D01*
X-1441293D01*
Y-0782322D01*
Y-0783423D01*
X-1442394D01*
Y-0784525D01*
X-1443495D01*
Y-0785626D01*
Y-0786727D01*
X-1444597D01*
Y-0787828D01*
X-1445698D01*
Y-0788930D01*
X-1446799D01*
Y-0790031D01*
X-1447900D01*
Y-0791132D01*
X-1449002D01*
Y-0792233D01*
X-1450103D01*
X-1451204D01*
Y-0793335D01*
X-1452305D01*
Y-0794436D01*
X-1453407D01*
X-1454508D01*
Y-0795537D01*
X-1455609D01*
X-1456710D01*
Y-0796638D01*
X-1457812D01*
X-1458913D01*
Y-0797740D01*
X-1460014D01*
X-1461115D01*
X-1462217D01*
Y-0798841D01*
X-1463318D01*
X-1464419D01*
X-1465521D01*
Y-0799942D01*
X-1466622D01*
X-1467723D01*
X-1468824D01*
X-1469926D01*
Y-0801043D01*
X-1471027D01*
X-1472128D01*
X-1473229D01*
X-1474331D01*
X-1475432D01*
Y-0802145D01*
X-1476533D01*
X-1477634D01*
X-1478736D01*
X-1479837D01*
X-1480938D01*
X-1482039D01*
X-1483141D01*
X-1484242D01*
Y-0803246D01*
X-1485343D01*
X-1486444D01*
X-1487546D01*
X-1488647D01*
X-1489748D01*
X-1490850D01*
X-1491951D01*
X-1493052D01*
X-1494153D01*
X-1495255D01*
X-1496356D01*
X-1497457D01*
X-1498558D01*
X-1499660D01*
X-1500761D01*
X-1501862D01*
X-1502963D01*
X-1504065D01*
X-1505166D01*
X-1506267D01*
X-1507368D01*
X-1508470D01*
X-1509571D01*
X-1510672D01*
X-1511773D01*
X-1512875D01*
X-1513976D01*
X-1515077D01*
X-1516179D01*
X-1517280D01*
X-1518381D01*
X-1519482D01*
X-1520584D01*
X-1521685D01*
X-1522786D01*
X-1523887D01*
Y-0802145D01*
X-1524989D01*
X-1526090D01*
X-1527191D01*
X-1528292D01*
X-1529394D01*
X-1530495D01*
X-1531596D01*
X-1532697D01*
Y-0801043D01*
X-1533799D01*
X-1534900D01*
X-1536001D01*
X-1537102D01*
X-1538204D01*
Y-0799942D01*
X-1539305D01*
X-1540406D01*
X-1541508D01*
X-1542609D01*
Y-0798841D01*
X-1543710D01*
X-1544811D01*
X-1545913D01*
Y-0797740D01*
X-1547014D01*
X-1548115D01*
X-1549216D01*
Y-0796638D01*
X-1550318D01*
X-1551419D01*
Y-0795537D01*
X-1552520D01*
X-1553621D01*
Y-0794436D01*
X-1554723D01*
X-1555824D01*
Y-0793335D01*
X-1556925D01*
Y-0792233D01*
X-1558026D01*
X-1559128D01*
Y-0791132D01*
X-1560229D01*
Y-0790031D01*
X-1561330D01*
Y-0788930D01*
X-1562431D01*
Y-0787828D01*
X-1563533D01*
Y-0786727D01*
X-1564634D01*
Y-0785626D01*
Y-0784525D01*
X-1565735D01*
Y-0783423D01*
X-1566837D01*
Y-0782322D01*
Y-0781221D01*
X-1567938D01*
Y-0780119D01*
Y-0779018D01*
Y-0777917D01*
X-1569039D01*
Y-0776816D01*
Y-0775714D01*
Y-0774613D01*
Y-0773512D01*
Y-0772411D01*
Y-0771309D01*
Y-0770208D01*
Y-0769107D01*
Y-0768006D01*
Y-0766904D01*
Y-0765803D01*
Y-0764702D01*
Y-0763601D01*
X-1567938D01*
Y-0762499D01*
Y-0761398D01*
Y-0760297D01*
Y-0759196D01*
X-1566837D01*
Y-0758094D01*
Y-0756993D01*
X-1565735D01*
Y-0755892D01*
X-1564634D01*
Y-0754790D01*
X-1563533D01*
Y-0753689D01*
Y-0752588D01*
X-1562431D01*
Y-0751487D01*
X-1561330D01*
Y-0750385D01*
X-1560229D01*
Y-0749284D01*
X-1559128D01*
X-1558026D01*
Y-0748183D01*
X-1556925D01*
Y-0747082D01*
X-1555824D01*
X-1554723D01*
Y-0745980D01*
X-1553621D01*
Y-0744879D01*
X-1552520D01*
X-1551419D01*
X-1550318D01*
Y-0743778D01*
X-1549216D01*
X-1548115D01*
Y-0742677D01*
X-1547014D01*
X-1545913D01*
Y-0741575D01*
X-1544811D01*
X-1543710D01*
X-1542609D01*
X-1541508D01*
Y-0740474D01*
X-1540406D01*
X-1539305D01*
X-1538204D01*
X-1537102D01*
Y-0739373D01*
X-1536001D01*
X-1534900D01*
X-1533799D01*
X-1532697D01*
X-1531596D01*
Y-0738272D01*
X-1530495D01*
X-1529394D01*
X-1528292D01*
X-1527191D01*
X-1526090D01*
X-1524989D01*
X-1523887D01*
X-1522786D01*
X-1521685D01*
Y-0737170D01*
X-1520584D01*
X-1519482D01*
X-1518381D01*
X-1517280D01*
X-1516179D01*
X-1515077D01*
X-1513976D01*
X-1512875D01*
X-1511773D01*
X-1510672D01*
X-1509571D01*
X-1508470D01*
X-1507368D01*
X-1506267D01*
X-1505166D01*
X-1504065D01*
X-1502963D01*
X-1501862D01*
X-1500761D01*
X-1499660D01*
X-1498558D01*
X-1497457D01*
X-1496356D01*
X-1495255D01*
X-1494153D01*
X-1493052D01*
X-1491951D01*
X-1490850D01*
X-1489748D01*
X-1488647D01*
X-1487546D01*
X-1486444D01*
G37*
G36*
X-1511773Y-0872625D02*
Y-0873727D01*
X-1510672D01*
X-1509571D01*
X-1508470D01*
X-1507368D01*
X-1506267D01*
Y-0874828D01*
X-1505166D01*
X-1504065D01*
X-1502963D01*
Y-0875929D01*
X-1501862D01*
X-1500761D01*
X-1499660D01*
Y-0877030D01*
X-1498558D01*
X-1497457D01*
X-1496356D01*
Y-0878132D01*
X-1495255D01*
X-1494153D01*
Y-0879233D01*
X-1493052D01*
Y-0880334D01*
X-1491951D01*
X-1490850D01*
Y-0881435D01*
X-1489748D01*
Y-0882537D01*
X-1488647D01*
Y-0883638D01*
X-1487546D01*
Y-0884739D01*
X-1486444D01*
Y-0885841D01*
X-1485343D01*
Y-0886942D01*
X-1484242D01*
Y-0888043D01*
X-1483141D01*
Y-0889144D01*
X-1482039D01*
Y-0890246D01*
Y-0891347D01*
X-1480938D01*
Y-0892448D01*
Y-0893549D01*
X-1479837D01*
Y-0894651D01*
Y-0895752D01*
Y-0896853D01*
X-1478736D01*
Y-0897954D01*
Y-0899056D01*
Y-0900157D01*
Y-0901258D01*
Y-0902359D01*
X-1477634D01*
Y-0903461D01*
Y-0904562D01*
Y-0905663D01*
Y-0906764D01*
Y-0907866D01*
Y-0908967D01*
Y-0910068D01*
X-1478736D01*
Y-0911170D01*
Y-0912271D01*
Y-0913372D01*
Y-0914473D01*
Y-0915575D01*
Y-0916676D01*
X-1479837D01*
Y-0917777D01*
Y-0918878D01*
X-1480938D01*
Y-0919980D01*
Y-0921081D01*
X-1482039D01*
Y-0922182D01*
Y-0923283D01*
X-1483141D01*
Y-0924385D01*
X-1484242D01*
Y-0925486D01*
X-1485343D01*
Y-0926587D01*
Y-0927688D01*
X-1486444D01*
Y-0928790D01*
X-1487546D01*
X-1488647D01*
Y-0929891D01*
X-1489748D01*
Y-0930992D01*
X-1490850D01*
Y-0932093D01*
X-1491951D01*
Y-0933195D01*
X-1493052D01*
X-1494153D01*
Y-0934296D01*
X-1495255D01*
X-1496356D01*
Y-0935397D01*
X-1497457D01*
X-1498558D01*
Y-0936499D01*
X-1499660D01*
X-1500761D01*
X-1501862D01*
Y-0937600D01*
X-1502963D01*
X-1504065D01*
X-1505166D01*
Y-0938701D01*
X-1506267D01*
X-1507368D01*
X-1508470D01*
X-1509571D01*
X-1510672D01*
Y-0939802D01*
X-1511773D01*
X-1512875D01*
X-1513976D01*
X-1515077D01*
X-1516179D01*
X-1517280D01*
X-1518381D01*
X-1519482D01*
X-1520584D01*
X-1521685D01*
X-1522786D01*
X-1523887D01*
X-1524989D01*
X-1526090D01*
X-1527191D01*
X-1528292D01*
X-1529394D01*
X-1530495D01*
X-1531596D01*
X-1532697D01*
X-1533799D01*
X-1534900D01*
X-1536001D01*
X-1537102D01*
Y-0938701D01*
X-1538204D01*
X-1539305D01*
X-1540406D01*
X-1541508D01*
X-1542609D01*
Y-0937600D01*
X-1543710D01*
X-1544811D01*
X-1545913D01*
Y-0936499D01*
X-1547014D01*
X-1548115D01*
X-1549216D01*
Y-0935397D01*
X-1550318D01*
X-1551419D01*
Y-0934296D01*
X-1552520D01*
X-1553621D01*
Y-0933195D01*
X-1554723D01*
X-1555824D01*
Y-0932093D01*
X-1556925D01*
Y-0930992D01*
X-1558026D01*
Y-0929891D01*
X-1559128D01*
Y-0928790D01*
X-1560229D01*
X-1561330D01*
Y-0927688D01*
X-1562431D01*
Y-0926587D01*
Y-0925486D01*
X-1563533D01*
Y-0924385D01*
X-1564634D01*
Y-0923283D01*
X-1565735D01*
Y-0922182D01*
Y-0921081D01*
X-1566837D01*
Y-0919980D01*
Y-0918878D01*
X-1567938D01*
Y-0917777D01*
Y-0916676D01*
Y-0915575D01*
X-1569039D01*
Y-0914473D01*
Y-0913372D01*
Y-0912271D01*
Y-0911170D01*
Y-0910068D01*
X-1570140D01*
Y-0908967D01*
Y-0907866D01*
Y-0906764D01*
Y-0905663D01*
Y-0904562D01*
Y-0903461D01*
Y-0902359D01*
X-1569039D01*
Y-0901258D01*
Y-0900157D01*
Y-0899056D01*
Y-0897954D01*
Y-0896853D01*
X-1567938D01*
Y-0895752D01*
Y-0894651D01*
Y-0893549D01*
X-1566837D01*
Y-0892448D01*
Y-0891347D01*
X-1565735D01*
Y-0890246D01*
Y-0889144D01*
X-1564634D01*
Y-0888043D01*
X-1563533D01*
Y-0886942D01*
X-1562431D01*
Y-0885841D01*
X-1561330D01*
Y-0884739D01*
X-1560229D01*
Y-0883638D01*
X-1559128D01*
Y-0882537D01*
X-1558026D01*
Y-0881435D01*
X-1556925D01*
Y-0880334D01*
X-1555824D01*
X-1554723D01*
Y-0879233D01*
X-1553621D01*
X-1552520D01*
Y-0878132D01*
X-1551419D01*
Y-0877030D01*
X-1550318D01*
X-1549216D01*
X-1548115D01*
Y-0875929D01*
X-1547014D01*
X-1545913D01*
Y-0874828D01*
X-1544811D01*
X-1543710D01*
X-1542609D01*
X-1541508D01*
Y-0873727D01*
X-1540406D01*
X-1539305D01*
X-1538204D01*
X-1537102D01*
X-1536001D01*
Y-0872625D01*
X-1534900D01*
X-1533799D01*
X-1532697D01*
X-1531596D01*
X-1530495D01*
X-1529394D01*
X-1528292D01*
X-1527191D01*
X-1526090D01*
X-1524989D01*
X-1523887D01*
X-1522786D01*
X-1521685D01*
X-1520584D01*
X-1519482D01*
X-1518381D01*
X-1517280D01*
X-1516179D01*
X-1515077D01*
X-1513976D01*
X-1512875D01*
X-1511773D01*
G37*
G04 MD5: d49d286c2e3cdaa573c3aa1f444af3b1*
M02*
